<?xml version="1.0" standalone="no"?>
<!DOCTYPE svg PUBLIC "-//W3C//DTD SVG 20010904//EN"
 "http://www.w3.org/TR/2001/REC-SVG-20010904/DTD/svg10.dtd">
<svg version="1.0" xmlns="http://www.w3.org/2000/svg"
 width="1211.000000pt" height="1280.000000pt" viewBox="0 0 1211.000000 1280.000000"
 preserveAspectRatio="xMidYMid meet">
<metadata>
Created by potrace 1.15, written by Peter Selinger 2001-2017
</metadata>
<g transform="translate(0.000000,1280.000000) scale(0.100000,-0.100000)"
fill="#000000" stroke="none">
<path d="M7945 12790 c-93 -3 -184 -11 -200 -17 -94 -32 -297 -157 -309 -189
-11 -27 -35 -14 -46 24 -14 52 -60 114 -106 143 -37 23 -42 23 -269 21 -267
-3 -304 -7 -347 -36 -36 -24 -95 -106 -105 -145 -3 -14 -39 -61 -80 -104 -83
-87 -106 -130 -128 -240 -22 -106 -8 -216 41 -314 36 -74 55 -96 140 -170 118
-101 138 -110 278 -124 95 -9 108 -8 167 11 123 41 205 103 251 188 21 39 31
40 53 5 10 -16 40 -54 68 -86 93 -108 299 -183 430 -157 34 6 75 19 91 27 29
15 85 14 143 -3 18 -5 22 -1 25 23 l3 28 15 -30 c14 -28 20 -31 90 -38 108
-12 170 -3 252 34 92 43 159 128 114 145 -8 3 -24 0 -35 -6 -39 -20 -243 -32
-354 -20 -144 16 -187 39 -317 171 -153 155 -210 187 -226 125 -9 -37 62 -180
124 -247 29 -31 52 -62 52 -68 0 -28 -123 0 -229 52 -39 19 -221 197 -241 236
-10 20 -27 44 -39 55 -18 16 -23 17 -37 5 -12 -10 -15 -24 -11 -53 9 -63 -12
-115 -69 -173 -66 -66 -130 -87 -249 -81 -67 3 -91 9 -131 33 -99 57 -121 82
-177 192 -50 102 -52 109 -52 187 0 102 16 156 62 207 40 45 106 69 188 69 66
0 109 -35 158 -128 44 -83 45 -108 12 -196 -41 -108 -32 -125 43 -87 45 23
106 102 121 156 40 145 -25 268 -184 350 -64 34 -75 36 -144 33 -47 -2 -76 1
-78 8 -6 18 131 84 197 96 52 9 69 7 132 -12 132 -40 237 -129 274 -232 11
-31 25 -53 34 -53 8 0 22 21 33 50 22 60 34 76 53 68 8 -3 42 11 75 31 67 40
207 90 254 92 17 0 66 8 110 18 57 12 99 16 145 11 307 -31 491 -98 628 -229
140 -133 190 -223 258 -462 25 -88 55 -181 68 -209 33 -71 104 -163 166 -215
182 -152 254 -253 306 -425 22 -76 27 -115 31 -250 4 -102 1 -186 -7 -230 -22
-134 -24 -165 -8 -165 8 0 33 16 55 35 23 19 49 35 58 35 29 0 95 -60 121
-111 59 -117 66 -243 18 -348 -29 -65 -30 -80 -3 -125 30 -51 36 -133 13 -195
-22 -62 -43 -66 -75 -13 -29 48 -79 102 -96 102 -18 0 -16 -21 12 -130 42
-164 31 -255 -50 -405 -60 -109 -190 -230 -305 -284 -48 -23 -68 -26 -160 -26
-124 1 -190 24 -240 84 -42 49 -42 50 -64 65 -15 10 -21 36 -32 130 -16 137
-28 189 -50 207 -13 10 -17 10 -25 -2 -12 -19 -11 -391 1 -504 18 -164 35
-215 96 -290 l55 -66 -14 -47 c-40 -127 -140 -377 -188 -467 -33 -63 -46 -86
-178 -308 -187 -315 -528 -806 -766 -1103 -49 -62 -100 -126 -112 -141 -96
-125 -260 -316 -468 -550 -66 -73 -140 -157 -164 -186 -109 -131 -226 -257
-238 -257 -11 0 -13 101 -12 538 0 295 4 584 9 642 17 218 42 439 61 540 11
58 26 146 35 195 29 181 99 467 179 729 34 116 70 237 79 269 31 107 41 76 56
-178 15 -243 28 -338 59 -435 16 -47 40 -125 56 -175 34 -112 73 -187 94 -183
48 9 51 113 7 263 -32 106 -72 319 -80 425 -7 82 -14 141 -48 392 -16 120 -19
171 -11 179 7 7 40 -9 114 -57 131 -85 208 -114 319 -121 276 -18 522 109 724
372 33 44 68 92 76 107 8 15 35 63 59 105 97 174 161 403 120 428 -14 9 -46
-21 -53 -51 -12 -47 -145 -315 -190 -382 -83 -125 -226 -281 -316 -346 -147
-105 -315 -138 -482 -96 -127 32 -216 88 -357 224 -195 190 -343 449 -420 737
-11 41 -18 85 -14 97 3 12 0 29 -7 37 -12 14 -45 127 -59 200 -7 35 -23 89
-63 210 -9 28 -27 168 -31 240 -2 26 2 30 25 33 15 2 63 -13 110 -33 80 -36
86 -37 193 -35 127 1 186 12 226 41 37 26 36 35 -1 54 -32 17 -38 36 -16 54
10 8 23 4 54 -19 72 -52 72 -59 -8 -140 -39 -39 -68 -75 -65 -80 11 -17 73
-11 115 11 46 24 95 79 105 117 8 34 -57 132 -89 132 -32 0 -49 15 -42 36 9
28 -29 83 -69 100 -72 30 -147 29 -271 -1 -100 -25 -120 -27 -157 -18 -34 9
-45 9 -58 -3 -28 -26 -39 -16 -39 35 0 93 81 161 192 161 63 0 194 -26 298
-60 85 -27 184 -37 205 -20 22 18 19 25 -22 66 -49 47 -100 80 -138 87 -16 3
-55 13 -85 22 -42 12 -89 15 -195 13 -131 -3 -143 -5 -194 -31 -71 -38 -81
-33 -81 46 0 35 -4 99 -10 143 -5 43 -14 173 -20 289 -5 115 -15 214 -20 219
-21 21 -43 -22 -57 -111 -22 -136 -28 -1085 -7 -1208 31 -190 36 -212 64 -296
16 -47 45 -164 64 -260 19 -95 45 -205 57 -244 26 -81 177 -384 232 -465 42
-62 45 -75 18 -90 -59 -31 -193 18 -207 77 -5 19 -1 31 19 49 39 36 52 86 32
123 -8 17 -17 31 -20 31 -15 0 -118 -31 -136 -41 -37 -19 -182 -5 -238 24 -50
26 -131 117 -131 147 0 10 15 28 35 40 40 25 115 107 115 126 0 22 -12 23 -94
8 -67 -11 -84 -11 -110 0 -17 8 -53 20 -81 27 -57 15 -132 78 -170 144 -37 64
-69 215 -61 294 15 146 60 275 102 291 21 8 31 5 65 -22 34 -27 43 -30 67 -22
37 13 38 39 2 115 -16 35 -30 71 -30 79 0 8 -7 35 -16 59 -18 53 -18 220 1
332 13 80 89 259 109 259 6 0 32 -24 58 -52 43 -50 47 -52 63 -36 16 15 17 27
7 125 -12 117 -6 197 23 303 21 78 22 81 96 194 61 92 69 113 44 122 -24 10
-118 -41 -168 -92 -74 -74 -116 -171 -129 -297 l-11 -102 -68 -73 c-48 -52
-80 -99 -112 -165 -62 -126 -77 -183 -84 -318 -5 -102 -3 -125 16 -188 l22
-73 -58 -57 c-96 -93 -143 -212 -150 -378 -6 -134 2 -175 62 -299 52 -107 154
-223 244 -279 48 -30 61 -45 84 -94 20 -44 48 -78 105 -131 83 -77 142 -112
218 -131 63 -15 75 -23 159 -105 118 -116 235 -157 362 -126 35 8 65 13 68 10
3 -3 8 -28 12 -55 5 -48 4 -50 -33 -81 -47 -39 -160 -98 -266 -140 -54 -22
-115 -36 -205 -47 -152 -19 -341 -59 -438 -92 -38 -13 -92 -26 -120 -29 -69
-8 -171 11 -214 39 -20 13 -51 27 -69 30 -19 4 -88 31 -155 61 -164 73 -334
116 -462 116 -85 0 -243 -23 -274 -39 -28 -15 -78 -94 -92 -143 -7 -27 -17
-40 -33 -44 -50 -12 -250 -171 -378 -301 -88 -89 -121 -132 -188 -243 -105
-174 -114 -206 -115 -395 0 -131 4 -165 28 -267 l28 -118 -68 -86 c-186 -235
-263 -346 -378 -545 -60 -104 -125 -251 -125 -285 0 -11 -47 -94 -105 -184
-58 -89 -105 -167 -105 -171 0 -5 -15 -32 -33 -61 -31 -48 -77 -148 -167 -358
-52 -121 -118 -295 -171 -450 -28 -80 -56 -150 -62 -157 -7 -6 -73 -16 -152
-23 -77 -6 -194 -18 -260 -26 -66 -8 -136 -14 -155 -14 -19 0 -64 -7 -100 -15
-36 -8 -139 -29 -230 -46 -190 -35 -334 -70 -438 -106 -73 -24 -74 -25 -210
-12 -75 6 -175 12 -222 13 -47 1 -92 6 -100 11 -30 19 -385 31 -580 18 -102
-6 -204 -12 -227 -12 -35 -1 -49 -7 -78 -37 -35 -35 -36 -38 -33 -98 4 -57 21
-132 55 -249 7 -26 20 -82 28 -125 8 -42 21 -108 28 -147 8 -38 20 -104 27
-145 6 -41 18 -111 25 -155 8 -44 21 -129 30 -190 9 -60 22 -150 31 -200 22
-139 54 -352 64 -440 5 -44 16 -127 24 -185 26 -184 58 -464 75 -661 9 -99 23
-140 61 -174 21 -19 35 -20 318 -17 179 2 303 -1 311 -7 20 -13 8 -38 -82
-163 -40 -57 -94 -134 -120 -173 -26 -38 -87 -126 -137 -195 -49 -69 -114
-161 -144 -204 -79 -114 -73 -121 179 -201 99 -32 266 -91 370 -132 257 -100
268 -105 445 -169 85 -31 173 -65 194 -76 22 -11 67 -28 100 -38 68 -20 241
-85 268 -100 10 -6 23 -10 29 -10 13 0 162 -56 249 -94 53 -23 196 -77 490
-185 74 -27 162 -61 195 -74 33 -14 76 -28 96 -32 34 -6 39 -4 78 42 44 50 40
41 172 428 38 112 142 386 190 500 12 28 38 95 58 149 l36 100 87 72 c49 41
130 98 182 129 52 30 117 73 143 94 27 21 87 63 133 93 194 127 481 368 535
450 28 42 128 243 183 368 19 41 40 86 48 100 8 14 33 61 55 105 52 101 161
294 254 450 198 331 194 320 145 356 -27 20 -330 159 -473 216 -48 19 -90 39
-93 44 -3 5 9 17 26 27 17 9 56 36 87 60 30 23 63 42 71 42 106 0 348 -59 557
-135 55 -21 130 -48 168 -61 37 -13 77 -28 88 -35 75 -40 738 -258 989 -325
374 -100 428 -113 517 -129 48 -8 131 -26 184 -39 140 -36 557 -98 779 -116
166 -14 266 -26 440 -55 80 -13 207 -31 283 -40 135 -15 138 -15 210 6 140 41
181 71 463 331 294 271 625 657 831 968 139 212 183 280 224 350 24 41 55 90
69 109 14 18 59 89 100 156 167 275 278 450 337 533 35 48 95 132 135 186 39
55 142 173 227 263 240 253 286 308 336 408 50 99 53 125 35 259 -13 87 -29
148 -60 226 -30 75 -31 175 -2 253 12 32 22 73 22 91 0 18 9 96 21 172 29 191
24 375 -14 456 -48 105 -112 189 -262 341 -130 133 -233 206 -325 232 -35 10
-134 23 -280 36 -93 9 -182 9 -345 1 -219 -11 -322 -6 -380 17 -108 45 -371
111 -440 111 -20 0 -48 6 -63 14 -29 15 -219 56 -282 61 -77 6 -247 37 -304
56 -92 30 -127 48 -172 88 -60 52 -155 126 -184 141 -14 7 -44 28 -68 46 -27
20 -65 38 -100 45 -59 13 -92 33 -92 56 0 21 23 16 111 -27 78 -38 88 -40 173
-40 96 1 211 25 243 51 10 8 32 21 48 29 17 8 74 59 128 113 83 84 104 112
141 190 57 118 76 176 83 255 7 69 12 77 83 124 41 27 63 67 86 157 19 75 13
129 -21 196 l-23 47 34 54 34 53 0 123 c-1 76 -6 137 -14 160 -25 70 -99 168
-173 229 -40 33 -73 66 -73 72 0 7 7 48 16 92 20 103 22 223 5 254 -7 13 -17
47 -21 75 -9 57 -67 205 -91 233 -9 10 -35 46 -58 80 -48 73 -116 148 -259
290 -117 116 -131 142 -162 293 -21 102 -30 133 -84 272 -47 123 -179 271
-336 377 -99 66 -195 107 -298 127 -75 14 -97 14 -397 4z m-1103 -2185 c19
-43 -32 -77 -61 -41 -19 23 7 62 42 65 4 1 12 -10 19 -24z m2179 -1991 c139
-119 162 -134 279 -182 94 -38 199 -66 375 -97 137 -24 559 -131 660 -166 l90
-32 310 -7 c382 -10 427 -14 590 -51 196 -45 263 -71 330 -130 63 -55 203
-235 242 -309 l38 -73 0 -156 c0 -86 -6 -183 -12 -216 -6 -33 -23 -126 -39
-207 -31 -165 -33 -143 27 -353 49 -169 36 -267 -52 -396 -44 -65 -132 -176
-155 -194 -6 -5 -36 -39 -66 -74 -143 -173 -210 -262 -278 -369 -237 -374
-464 -713 -503 -750 l-34 -33 -46 58 c-46 58 -248 246 -309 288 -18 12 -81 48
-140 79 -161 85 -319 112 -499 86 -36 -5 -74 -13 -83 -16 -13 -5 -33 10 -77
56 -61 66 -72 94 -40 105 17 5 116 24 287 54 23 4 65 22 95 40 105 62 224 114
272 119 26 3 50 9 53 13 3 5 12 9 21 9 40 0 68 61 45 97 -12 20 -54 30 -86 22
-91 -22 -171 -29 -350 -29 l-198 0 6 25 c4 14 20 54 38 90 31 66 31 66 20 147
-7 44 -17 87 -23 94 -15 19 -38 128 -39 184 0 83 32 130 277 406 101 113 115
132 132 192 11 37 25 112 31 167 21 195 54 296 148 460 38 64 52 100 52 127 0
33 -3 38 -24 38 -31 0 -113 -62 -155 -119 -19 -25 -49 -79 -67 -119 -29 -68
-39 -106 -78 -316 -20 -102 -57 -157 -225 -331 -144 -149 -199 -238 -226 -366
-18 -86 -15 -137 22 -294 22 -99 24 -116 14 -184 -6 -40 -26 -110 -44 -155
-36 -92 -50 -102 -144 -112 -59 -6 -60 -6 -168 56 -60 34 -147 81 -194 104
-82 39 -91 41 -196 44 -95 3 -122 0 -192 -22 -83 -25 -186 -43 -409 -71 -134
-17 -202 -38 -374 -115 -205 -91 -373 -157 -485 -189 -60 -17 -133 -38 -161
-46 -129 -38 -216 -56 -299 -65 -141 -14 -322 -23 -332 -17 -5 4 85 102 202
219 116 117 279 294 361 392 82 99 185 222 229 274 101 120 228 282 346 442
51 69 113 150 138 181 81 100 140 180 259 357 185 274 263 396 301 471 20 40
83 151 160 286 61 105 177 391 197 485 7 36 14 90 14 121 0 54 5 69 21 69 5 0
58 -43 120 -96z m-3943 -5 c53 -6 111 -17 127 -24 17 -8 50 -19 75 -25 25 -7
65 -23 89 -36 24 -13 48 -24 54 -24 10 0 164 -62 207 -84 90 -46 149 -58 252
-54 106 5 268 34 373 68 33 11 125 29 204 40 183 25 274 51 379 106 45 24 88
44 93 44 6 0 -13 -44 -42 -97 -47 -88 -125 -286 -152 -388 -5 -22 -25 -89 -43
-150 -158 -536 -228 -1305 -179 -1966 17 -228 25 -284 60 -415 l25 -90 -19
-50 -19 -49 -124 1 c-155 2 -379 25 -668 71 -124 19 -250 39 -280 44 -282 44
-613 77 -790 79 -14 0 -31 4 -39 9 -12 8 -12 12 -2 25 22 26 7 90 -33 144 -33
46 -162 168 -211 202 -13 8 -58 40 -101 70 -87 59 -289 157 -344 165 -19 3
-66 13 -105 21 -70 15 -244 15 -291 -1 -14 -4 -23 -2 -27 8 -6 15 2 28 158
267 56 85 119 183 141 218 21 35 55 89 75 120 59 94 89 152 137 262 l45 105
-17 105 c-37 244 -30 321 43 467 62 123 291 381 511 574 49 43 88 89 113 132
21 36 47 73 57 82 38 34 115 41 268 24z m-1398 -2470 c85 -10 206 -40 311 -77
100 -35 268 -146 388 -257 39 -35 104 -90 146 -120 41 -31 75 -60 75 -65 0 -6
-64 -10 -157 -10 -165 0 -225 -6 -408 -41 -172 -32 -380 -116 -438 -176 -26
-28 -27 -30 -10 -45 16 -15 22 -15 58 -1 78 30 268 83 366 103 124 25 397 44
509 35 47 -3 129 -8 183 -11 193 -8 654 -72 927 -130 225 -47 484 -82 840
-114 138 -12 285 -3 380 25 30 9 95 20 144 25 49 5 170 31 270 56 99 26 199
50 221 53 22 4 49 12 60 19 31 17 116 52 129 52 15 0 194 67 231 87 17 9 72
38 123 64 52 27 107 58 124 70 41 30 125 46 303 59 114 9 189 21 310 52 150
37 164 39 231 30 55 -7 92 -21 167 -62 100 -53 122 -80 66 -80 -17 0 -78 -11
-137 -25 -59 -13 -152 -31 -207 -40 -55 -8 -165 -30 -244 -47 l-143 -32 -79
28 c-69 24 -82 26 -114 16 -19 -6 -35 -18 -35 -26 0 -26 97 -90 211 -138 63
-26 130 -56 149 -66 50 -26 273 -90 314 -90 20 0 61 -9 92 -21 47 -18 84 -48
234 -190 115 -110 199 -199 237 -252 67 -95 138 -150 187 -145 59 6 46 39
-100 258 -13 20 -42 53 -64 75 -22 21 -40 47 -40 58 0 19 42 98 68 130 11 12
30 17 64 17 49 0 87 23 100 60 3 11 10 12 34 2 16 -6 81 -17 144 -23 73 -7
138 -20 179 -35 99 -37 234 -112 295 -163 152 -128 188 -161 269 -248 48 -52
87 -104 87 -114 0 -25 -42 -107 -73 -145 -13 -16 -32 -45 -42 -64 -52 -103
-197 -320 -323 -482 -158 -204 -418 -476 -705 -735 -133 -120 -180 -156 -223
-173 -60 -22 -133 -25 -215 -10 -52 11 -153 26 -349 54 -52 8 -149 23 -215 34
-66 11 -190 25 -275 31 -175 13 -360 37 -404 51 -16 6 -77 17 -135 26 -58 8
-123 20 -144 25 -21 6 -73 17 -115 24 -72 14 -233 51 -312 73 -19 6 -114 31
-210 56 -96 26 -211 58 -255 72 -44 14 -105 32 -135 41 -30 8 -95 30 -145 48
-49 18 -180 61 -290 95 -215 67 -322 105 -344 123 -28 24 11 298 48 328 10 8
72 28 137 43 66 15 157 38 204 51 47 13 155 40 240 59 85 20 214 52 285 71
248 67 253 68 360 61 55 -3 143 -12 195 -21 163 -26 370 -31 480 -11 52 9 122
22 155 27 33 6 89 20 125 32 54 18 87 22 195 22 122 -1 137 -3 245 -38 63 -20
139 -44 169 -52 30 -9 79 -33 110 -54 139 -93 445 -201 572 -201 36 0 79 39
79 71 0 13 12 35 26 50 l25 27 -47 38 c-26 22 -76 55 -112 74 -64 34 -93 62
-79 76 3 4 48 -8 99 -26 79 -27 108 -32 193 -34 113 -1 143 10 164 62 10 24
10 36 -3 67 -9 21 -16 46 -16 55 0 21 -47 53 -108 74 -23 8 -73 35 -111 60
-39 25 -74 46 -79 46 -6 0 -63 48 -128 106 -66 59 -137 119 -159 134 -40 28
-234 97 -335 120 -54 13 -97 32 -273 124 -84 44 -125 54 -161 40 -33 -13 -16
-40 47 -74 200 -108 344 -174 442 -205 121 -38 188 -76 300 -171 190 -161 376
-267 496 -281 27 -3 48 -10 46 -16 -4 -13 -86 -46 -116 -46 -34 -1 -238 48
-287 69 -22 10 -72 40 -110 68 -57 41 -114 66 -331 147 -150 56 -284 111 -315
132 -90 59 -125 73 -176 73 -34 0 -54 -5 -65 -18 -22 -24 -11 -37 56 -68 32
-14 100 -54 152 -89 52 -34 176 -103 277 -153 163 -81 195 -101 288 -182 92
-80 159 -129 264 -194 15 -10 24 -22 20 -26 -11 -11 -68 1 -194 41 -102 32
-113 37 -247 115 -77 44 -217 109 -308 142 -16 6 -59 16 -95 22 -94 15 -201
40 -219 50 -11 5 -35 2 -67 -9 -28 -10 -77 -21 -110 -25 -32 -4 -115 -18 -184
-31 -69 -13 -184 -29 -256 -36 -132 -12 -175 -10 -439 21 -146 18 -252 9 -380
-30 -16 -5 -91 -25 -165 -45 -74 -19 -196 -51 -270 -71 -74 -20 -187 -49 -250
-64 -63 -15 -135 -33 -160 -39 -59 -14 -185 -40 -285 -57 -44 -7 -86 -16 -94
-19 -8 -3 -92 -17 -185 -31 -94 -13 -205 -31 -246 -39 -41 -8 -140 -21 -220
-30 -80 -9 -201 -22 -270 -30 -211 -25 -553 -35 -805 -25 -302 13 -447 25
-552 46 -12 2 -40 22 -62 44 -44 45 -54 47 -111 24 -77 -31 -176 4 -238 86
l-34 45 5 130 c7 170 37 297 147 615 93 270 318 779 387 876 12 16 35 58 52
94 41 84 76 120 116 120 17 0 69 -5 115 -11z m7935 -289 c3 -5 -3 -10 -15 -10
-12 0 -18 5 -15 10 3 6 10 10 15 10 5 0 12 -4 15 -10z m-1617 -136 c28 -8 28
-30 0 -45 -39 -21 -179 4 -155 27 17 17 114 28 155 18z m-224 -30 c19 -7 21
-47 3 -63 -18 -14 -249 -64 -309 -66 -26 -1 -54 -7 -62 -14 -8 -7 -23 -11 -33
-9 -10 1 -31 -3 -48 -9 -16 -7 -64 -17 -105 -23 -79 -12 -263 -51 -364 -76
-52 -14 -62 -14 -91 0 -18 9 -39 16 -47 16 -18 0 -55 27 -47 34 5 6 38 12 299
62 74 14 158 31 185 39 28 8 115 24 195 35 80 11 192 31 250 45 58 14 116 26
130 28 14 3 26 5 27 6 1 0 8 -2 17 -5z m-250 -271 c10 -21 31 -54 48 -75 32
-40 30 -58 -5 -58 -42 1 -95 27 -146 71 -64 55 -69 86 -13 92 96 10 97 10 116
-30z m-211 -87 c52 -51 87 -93 87 -105 0 -11 -11 -33 -24 -48 l-24 -28 -70 68
c-39 37 -86 74 -105 82 -19 8 -49 26 -66 41 -28 23 -35 25 -57 15 -32 -14 -37
-14 -32 1 4 10 146 52 194 57 5 0 49 -37 97 -83z m-6557 -601 c-19 -49 -28
-163 -24 -285 5 -119 8 -144 31 -193 50 -109 135 -167 300 -202 91 -20 117
-31 117 -49 0 -8 -23 -65 -51 -127 -59 -132 -89 -239 -89 -321 0 -84 47 -192
115 -266 43 -47 53 -65 58 -105 6 -45 62 -160 147 -302 17 -27 41 -73 54 -101
29 -60 104 -169 140 -203 14 -14 26 -28 26 -32 0 -4 -28 -10 -62 -14 -77 -9
-164 -37 -241 -78 -52 -27 -60 -29 -73 -15 -9 9 -22 56 -30 109 -23 144 -50
255 -116 479 -33 113 -73 252 -89 310 -48 176 -181 570 -200 593 -29 36 -44 9
-41 -76 3 -119 45 -305 141 -637 12 -41 37 -134 55 -205 33 -131 105 -367 152
-500 13 -38 24 -84 24 -102 0 -29 -4 -33 -37 -42 -21 -6 -48 -11 -59 -11 -12
0 -44 -7 -70 -15 -27 -8 -155 -46 -284 -85 -129 -38 -280 -85 -335 -104 -55
-19 -116 -40 -135 -46 -19 -7 -66 -25 -105 -41 -142 -57 -236 -84 -244 -70 -5
7 -11 65 -15 129 -4 64 -11 146 -16 182 -5 36 -19 146 -30 245 -11 99 -27 200
-35 225 -8 25 -28 117 -45 205 -46 234 -109 468 -154 570 -29 63 -63 108 -77
99 -12 -7 -11 -55 1 -107 15 -68 48 -257 55 -321 4 -32 13 -79 20 -105 14 -45
57 -315 90 -556 9 -66 27 -201 41 -300 36 -254 36 -258 25 -274 -6 -10 -27
-14 -63 -13 -29 1 -285 5 -568 10 -283 5 -516 10 -516 11 -1 0 -5 49 -9 109
-9 151 -62 676 -75 742 -5 30 -14 93 -20 140 -5 47 -19 135 -30 195 -11 61
-32 189 -46 285 -14 96 -34 207 -45 246 -10 38 -26 115 -34 170 -8 54 -22 124
-30 154 -8 30 -15 64 -15 76 0 12 -11 55 -24 95 -13 41 -30 110 -37 154 -8 55
-19 89 -35 107 -30 37 -40 68 -23 79 51 31 537 32 814 1 105 -12 246 -26 315
-32 l125 -11 160 46 c182 53 348 92 450 105 39 5 115 16 170 25 99 15 357 50
425 58 19 2 68 5 109 5 61 2 72 0 67 -13z m2839 -717 c-4 -40 -8 -88 -11 -107
-5 -33 -6 -33 -47 -28 -23 3 -100 17 -172 32 -146 29 -381 42 -505 28 -71 -8
-75 -9 -75 -33 0 -20 7 -26 42 -35 67 -16 72 -29 21 -58 -23 -14 -68 -35 -98
-47 -30 -12 -59 -25 -65 -29 -28 -22 -249 -116 -315 -134 -60 -16 -107 -20
-240 -21 -149 -1 -165 -3 -168 -19 -2 -11 13 -35 38 -59 48 -48 47 -55 -2
-156 -35 -70 -31 -82 25 -82 24 0 31 -7 48 -46 l21 -46 -23 -63 c-18 -53 -20
-67 -9 -79 17 -21 24 -20 68 8 20 14 87 39 147 56 61 18 117 38 124 46 8 7 21
37 28 66 26 100 80 163 191 223 100 54 117 112 28 99 -120 -19 -205 -80 -265
-194 -35 -65 -44 -72 -129 -101 -74 -24 -84 -24 -112 6 -22 23 -23 29 -16 116
4 51 9 96 11 99 2 4 51 10 107 13 68 4 132 15 188 32 47 14 103 30 125 36 41
9 137 46 210 80 52 24 61 21 256 -74 85 -41 190 -90 234 -107 92 -36 118 -56
111 -83 -2 -10 -37 -74 -76 -140 -117 -199 -236 -418 -349 -647 -58 -118 -116
-232 -129 -253 -28 -44 -51 -47 -130 -17 -29 11 -60 20 -69 20 -9 0 -26 8 -37
18 -12 11 -52 24 -96 32 -72 12 -140 33 -140 44 0 7 108 88 160 120 25 15 77
52 115 82 39 30 129 94 200 142 145 97 212 158 245 222 l22 43 -21 28 c-12 16
-32 45 -45 64 -33 48 -109 144 -181 227 -33 38 -68 83 -78 99 -11 16 -23 29
-28 29 -12 0 -65 -74 -95 -132 -13 -26 -31 -80 -39 -119 -9 -40 -21 -84 -28
-98 -18 -38 -78 -67 -201 -97 -111 -26 -122 -31 -251 -90 -80 -37 -167 -53
-189 -35 -8 7 -25 43 -37 79 -27 84 -64 158 -128 258 -28 43 -51 84 -51 90 0
6 -10 23 -21 38 -19 24 -21 36 -16 89 3 37 18 91 36 133 49 114 54 204 12 204
-26 0 -60 -42 -108 -136 -53 -102 -60 -145 -38 -237 16 -67 34 -107 113 -248
18 -31 43 -98 56 -151 14 -52 33 -109 43 -126 22 -39 13 -48 -36 -34 -21 7
-53 12 -70 12 -65 0 -71 10 -71 118 -1 101 -14 176 -49 274 -13 36 -24 101
-29 173 -7 86 -13 120 -25 133 -22 21 -29 12 -57 -65 -14 -39 -20 -74 -17 -95
13 -82 36 -186 47 -213 11 -30 6 -188 -9 -243 l-7 -24 -29 35 c-52 62 -93 121
-104 150 -17 43 -12 116 10 177 52 142 68 204 81 311 13 112 13 114 40 117 35
4 52 25 40 49 -15 28 -52 170 -52 199 0 25 2 26 43 20 255 -37 780 -56 997
-37 69 6 177 15 240 21 63 6 138 15 165 20 28 6 138 21 245 34 107 14 215 29
240 35 92 21 136 29 178 30 l42 1 -5 -72z m-2244 -18 c16 -9 19 -22 19 -88 0
-128 -35 -313 -83 -435 -47 -119 -57 -126 -95 -62 -33 57 -25 146 24 285 31
87 38 121 41 199 2 62 7 97 15 103 18 11 56 10 79 -2z m1419 -755 c0 -11 67
-100 143 -188 20 -25 35 -51 32 -58 -3 -8 -67 -54 -143 -102 -75 -48 -168
-110 -207 -138 -38 -28 -106 -74 -150 -104 -80 -54 -148 -104 -247 -181 -115
-89 -251 -187 -301 -218 -28 -17 -63 -42 -77 -54 -73 -65 -247 -183 -284 -192
-158 -40 -278 -74 -330 -94 -34 -13 -101 -37 -151 -54 -104 -35 -271 -98 -300
-112 -11 -5 -47 -19 -80 -29 -51 -17 -170 -64 -515 -206 -36 -15 -171 -78
-300 -141 -129 -63 -243 -114 -254 -112 -15 2 -31 29 -63 106 -46 113 -125
288 -179 396 -19 38 -34 75 -34 83 0 10 36 13 178 13 249 0 414 29 712 125 41
14 125 38 185 54 61 16 137 39 170 51 33 13 76 26 95 30 19 5 67 17 105 28 39
12 138 41 220 65 231 67 356 122 580 253 l90 52 120 7 c135 7 256 38 309 78
37 29 83 117 95 183 5 25 13 50 19 56 6 6 68 18 139 27 109 14 136 21 185 49
90 52 113 85 128 183 12 86 34 164 53 187 8 10 15 8 34 -9 12 -13 23 -28 23
-34z m-670 -450 c0 -23 -71 -96 -107 -112 -23 -9 -82 -13 -198 -13 l-165 0
-38 34 c-44 41 -37 54 17 36 46 -15 111 -7 186 21 37 14 77 19 150 19 68 1
108 5 125 15 31 18 30 18 30 0z m238 -454 c23 -16 77 -44 120 -61 189 -78 232
-102 232 -125 0 -47 -74 -122 -215 -218 -43 -29 -78 -57 -232 -183 -54 -44
-141 -111 -193 -148 -52 -37 -106 -76 -120 -86 -134 -98 -163 -114 -221 -118
-42 -3 -76 2 -121 17 -304 102 -557 172 -678 185 -57 7 -89 20 -78 31 4 4 89
35 190 70 574 197 622 216 715 280 97 67 206 143 393 275 85 61 157 110 160
110 3 0 24 -13 48 -29z m-3081 -574 c11 -24 46 -106 76 -182 83 -209 187 -448
203 -465 18 -19 58 -5 266 91 83 39 179 81 212 93 34 13 81 32 106 43 80 37
284 120 310 128 14 4 72 28 130 53 114 49 167 56 216 29 42 -24 136 -60 234
-91 47 -15 94 -32 105 -37 31 -14 261 -85 355 -108 101 -26 140 -40 140 -52 0
-40 -276 -659 -316 -709 -7 -8 -33 -69 -59 -135 -52 -132 -94 -215 -110 -215
-6 0 -20 7 -31 15 -12 8 -39 19 -60 24 -22 5 -86 30 -144 56 -58 26 -130 55
-160 65 -30 10 -93 34 -140 54 -47 19 -179 72 -295 116 -115 45 -219 86 -230
91 -23 11 -161 60 -360 128 -142 49 -333 110 -550 175 -66 20 -132 43 -147 51
-14 8 -33 15 -41 15 -26 0 -181 52 -196 66 -12 11 -10 19 15 53 47 66 139 209
199 311 31 52 76 127 101 165 24 39 63 103 85 143 23 39 46 72 53 72 7 0 21
-19 33 -43z m2027 -297 c7 -7 -1 -10 -26 -10 -45 0 -70 9 -62 22 8 12 73 3 88
-12z"/>
<path d="M10595 7898 c-2 -7 -14 -51 -26 -98 -11 -47 -26 -103 -32 -125 -5
-22 -10 -114 -10 -205 0 -146 3 -176 25 -261 30 -112 63 -179 111 -231 40 -44
60 -47 82 -15 14 21 13 31 -9 108 -63 215 -67 242 -80 454 -7 116 -11 241 -10
279 2 38 -2 78 -7 88 -11 21 -38 24 -44 6z"/>
<path d="M10707 7792 c-15 -16 -16 -36 -11 -143 6 -139 24 -242 61 -341 29
-79 52 -104 80 -89 25 13 48 81 39 118 -4 15 -11 46 -16 68 -4 22 -15 58 -24
80 -8 22 -15 55 -16 73 0 19 -9 68 -21 110 -38 140 -56 164 -92 124z m73 -172
c0 -5 -9 -10 -20 -10 -11 0 -20 5 -20 10 0 6 9 10 20 10 11 0 20 -4 20 -10z"/>
<path d="M8901 7568 c-12 -13 -50 -64 -83 -115 -119 -183 -411 -489 -633 -663
-235 -185 -530 -435 -630 -535 -68 -69 -225 -280 -225 -304 0 -4 -14 -27 -30
-50 -37 -51 -66 -109 -58 -117 15 -15 96 47 238 183 162 154 381 345 682 596
185 153 397 358 483 466 28 35 68 84 89 110 97 114 241 375 234 424 -4 30 -39
33 -67 5z m-913 -1021 c2 -12 -3 -17 -17 -17 -12 0 -21 6 -21 13 0 31 32 34
38 4z"/>
<path d="M9988 7550 c-79 -53 -516 -506 -619 -642 -51 -68 -125 -164 -165
-213 -72 -91 -214 -300 -214 -315 0 -24 40 -16 112 21 82 43 106 66 247 237
33 40 86 109 118 154 32 45 81 108 108 140 28 33 61 76 75 97 30 44 169 206
279 325 152 164 188 281 59 196z"/>
<path d="M10390 7398 c-6 -24 -17 -66 -25 -94 -13 -46 -13 -54 6 -105 20 -51
53 -99 70 -99 4 0 19 15 33 33 24 32 25 32 11 122 -13 90 -29 149 -48 173 -18
23 -36 12 -47 -30z"/>
<path d="M11050 6891 c-41 -4 -80 -10 -87 -14 -6 -4 -49 -18 -95 -31 -137 -40
-227 -91 -331 -186 -79 -72 -72 -84 49 -77 58 3 106 12 126 22 54 27 208 72
294 85 53 8 170 11 354 9 l275 -4 3 26 c3 22 -6 33 -45 62 -71 51 -141 84
-208 96 -80 15 -243 21 -335 12z"/>
<path d="M8440 6484 c-76 -50 -137 -84 -286 -161 -24 -12 -62 -37 -86 -55 -24
-18 -61 -42 -83 -53 -58 -29 -316 -204 -393 -266 -115 -92 -312 -292 -312
-317 0 -34 49 -30 84 7 15 16 40 31 55 34 26 6 115 63 271 174 135 97 223 157
491 338 290 194 389 278 389 331 0 39 -37 30 -130 -32z"/>
<path d="M10865 6460 c-27 -5 -82 -13 -122 -19 -75 -11 -166 -41 -199 -65 -19
-15 -19 -15 1 -35 40 -41 218 -52 500 -31 162 12 228 26 256 56 29 31 20 48
-38 75 -42 19 -67 23 -198 25 -82 1 -172 -1 -200 -6z"/>
<path d="M5036 8387 c-28 -21 -14 -45 31 -53 21 -4 73 -20 116 -35 97 -36 211
-41 247 -11 26 21 21 36 -19 56 -78 41 -339 71 -375 43z"/>
<path d="M4763 8328 c-12 -13 -52 -84 -91 -158 -55 -107 -74 -156 -92 -235
-12 -55 -28 -122 -36 -148 -8 -27 -20 -110 -26 -185 -9 -116 -8 -162 6 -302
30 -284 105 -451 274 -612 91 -87 110 -74 66 44 -14 40 -30 89 -35 108 -5 19
-27 89 -49 155 -23 66 -48 149 -56 185 -21 93 -31 535 -14 666 16 127 65 345
91 408 33 78 9 125 -38 74z"/>
<path d="M5637 8197 c-63 -83 -216 -423 -257 -573 -57 -208 -79 -353 -90 -599
-16 -319 -30 -361 -194 -578 -137 -180 -223 -325 -272 -459 -17 -48 -36 -239
-28 -292 7 -45 21 -69 35 -60 13 8 63 120 94 212 40 116 83 188 245 407 161
218 184 258 225 385 25 79 27 104 36 350 5 146 13 310 19 365 17 180 129 582
206 743 44 91 50 132 20 132 -8 0 -25 -15 -39 -33z"/>
<path d="M5196 8176 c-54 -19 -123 -51 -152 -72 -130 -89 -231 -254 -156 -254
28 0 109 46 158 89 64 56 145 95 279 135 166 49 203 79 143 116 -54 32 -151
28 -272 -14z"/>
<path d="M4241 7319 c-17 -37 -21 -65 -21 -179 0 -227 37 -333 159 -463 86
-91 149 -122 165 -81 6 17 -5 39 -91 180 -66 108 -93 197 -155 509 -5 28 -16
56 -23 64 -12 13 -17 9 -34 -30z"/>
<path d="M5656 6245 c-6 -18 34 -60 124 -131 96 -75 314 -329 470 -547 36 -50
71 -92 78 -95 9 -3 12 19 12 87 0 110 -21 172 -88 263 -155 210 -310 342 -485
411 -76 31 -102 33 -111 12z"/>
<path d="M2069 4433 c-53 -48 -69 -81 -69 -146 0 -45 4 -57 28 -79 15 -15 47
-31 72 -38 93 -23 110 -32 125 -60 19 -37 19 -37 -10 -56 -24 -16 -27 -15 -65
11 -38 26 -41 27 -65 11 -55 -36 -39 -116 29 -147 52 -24 78 -24 124 0 109 56
149 174 92 269 -22 36 -79 68 -149 83 -53 11 -67 27 -48 53 11 15 16 15 52 3
35 -13 43 -13 68 2 33 19 44 53 28 87 -14 31 -48 44 -117 44 -48 0 -58 -4 -95
-37z"/>
<path d="M1660 4397 c-59 -29 -60 -67 -9 -326 39 -195 43 -201 144 -201 90 0
131 14 151 51 27 54 -16 95 -90 84 -58 -9 -72 7 -81 92 -6 57 -24 156 -50 270
-7 32 -36 45 -65 30z"/>
<path d="M1270 4340 c-29 -29 -35 -67 -21 -145 7 -38 21 -124 31 -190 10 -66
21 -127 25 -136 13 -33 48 -39 155 -25 55 7 102 15 104 17 67 85 42 126 -69
114 -83 -9 -72 -33 -131 273 -22 109 -49 137 -94 92z"/>
<path d="M596 4327 c-34 -13 -67 -33 -78 -48 -19 -25 -19 -28 -3 -120 40 -219
75 -364 93 -382 23 -22 138 -41 198 -32 77 11 144 97 144 184 0 59 -15 89 -76
152 -51 54 -54 60 -54 109 0 73 -21 117 -67 136 -57 24 -93 24 -157 1z m105
-144 c8 -21 6 -30 -6 -42 -30 -30 -72 22 -45 54 19 23 39 18 51 -12z m114
-213 c42 -35 1 -107 -54 -95 -50 11 -91 82 -63 109 11 12 99 1 117 -14z"/>
<path d="M1009 4321 c-36 -36 -38 -74 -9 -187 10 -44 26 -126 36 -184 19 -121
25 -137 60 -146 32 -8 74 29 74 66 0 50 -70 422 -85 451 -19 37 -39 37 -76 0z"/>
<path d="M6630 12352 c-29 -23 -21 -37 36 -64 26 -12 51 -33 59 -49 19 -36 19
-115 0 -169 -34 -95 -11 -119 72 -75 97 50 118 142 61 265 -25 55 -26 55 -104
83 -93 32 -95 32 -124 9z"/>
<path d="M8646 11650 c-38 -34 -116 -178 -136 -253 -39 -147 50 -314 261 -486
107 -88 138 -132 175 -240 16 -49 21 -79 17 -116 -8 -68 -23 -95 -89 -154 -49
-43 -55 -53 -44 -66 14 -16 50 -20 66 -7 5 5 35 15 68 21 45 10 69 23 102 53
71 65 84 159 37 275 -40 101 -153 253 -240 322 -86 68 -170 164 -182 207 -17
60 -14 199 4 214 10 8 15 31 15 68 0 30 7 79 17 108 13 44 14 56 3 68 -18 23
-35 20 -74 -14z"/>
<path d="M7885 11042 c-70 -21 -109 -41 -188 -94 -121 -82 -152 -124 -108
-148 28 -14 62 -13 107 6 61 24 206 97 235 117 24 17 149 59 174 59 26 -1 116
-33 168 -60 105 -56 164 -54 133 6 -18 35 -54 59 -146 97 -57 24 -81 28 -190
31 -99 3 -137 0 -185 -14z"/>
<path d="M8977 10973 c-16 -15 -3 -36 57 -97 116 -116 168 -271 139 -414 -16
-76 -31 -108 -75 -148 -70 -67 -124 -78 -204 -44 -91 40 -117 14 -54 -54 45
-49 125 -86 184 -86 45 0 170 64 216 110 22 22 47 63 60 96 30 79 22 190 -21
316 -35 102 -70 159 -148 241 -72 75 -130 105 -154 80z"/>
<path d="M7244 10806 c-3 -9 7 -31 25 -54 40 -49 47 -75 56 -200 4 -57 13
-109 20 -119 13 -17 15 -17 32 0 16 15 18 36 18 150 0 142 -11 181 -58 211
-37 23 -86 30 -93 12z"/>
<path d="M7957 10796 c-71 -15 -108 -46 -90 -75 11 -17 6 -25 -37 -64 -48 -44
-61 -69 -40 -82 6 -3 10 -16 10 -27 0 -26 80 -106 129 -130 38 -18 74 -11 79
15 2 10 -15 26 -50 46 -69 38 -98 60 -98 71 0 16 26 11 41 -7 8 -9 37 -27 64
-39 43 -20 66 -24 160 -24 132 0 169 9 222 55 27 23 51 35 71 35 16 0 37 9 47
20 14 16 15 24 6 51 -6 18 -11 42 -11 55 0 14 -12 31 -30 44 -16 12 -30 28
-30 35 0 21 -14 25 -47 13 -24 -9 -38 -8 -72 5 -50 21 -235 22 -324 3z m188
-56 c4 -6 -12 -10 -42 -10 -35 0 -44 3 -33 10 20 13 67 13 75 0z m-125 -150
c0 -37 -8 -42 -41 -24 -35 17 -37 37 -7 58 27 19 48 5 48 -34z m280 11 c0 -12
-20 -25 -27 -18 -7 7 6 27 18 27 5 0 9 -4 9 -9z"/>
<path d="M7640 10635 c-30 -36 23 -179 86 -235 39 -34 86 -38 92 -9 2 9 -19
50 -46 91 -44 68 -59 97 -76 151 -7 21 -39 22 -56 2z"/>
<path d="M8667 10401 c-36 -24 -78 -75 -104 -126 -23 -44 -63 -217 -63 -268 0
-60 36 -161 83 -234 49 -76 98 -117 182 -150 98 -39 131 -46 216 -46 78 0 92
3 140 30 61 34 95 73 85 98 -5 15 -13 16 -54 9 -94 -17 -152 -11 -225 24 -78
38 -164 118 -197 182 -39 76 -37 224 6 436 4 22 1 36 -11 47 -21 21 -24 21
-58 -2z"/>
<path d="M7228 10113 c-21 -26 -48 -98 -48 -132 0 -16 9 -39 20 -52 l20 -24
20 23 c47 57 54 202 10 202 -4 0 -14 -8 -22 -17z"/>
<path d="M7740 10091 c0 -17 4 -32 9 -35 5 -4 16 -27 25 -53 19 -56 42 -83 71
-83 45 0 60 53 27 101 -49 72 -78 99 -104 99 -24 0 -28 -4 -28 -29z"/>
<path d="M7311 9947 c-39 -20 -48 -42 -27 -66 11 -12 26 -21 35 -21 9 0 51
-12 94 -27 l78 -28 62 24 c34 13 91 29 127 35 53 10 66 16 68 32 4 29 -31 56
-76 58 -22 0 -70 -12 -111 -29 l-72 -29 -52 26 c-69 34 -97 40 -126 25z"/>
<path d="M7603 9650 c-76 -31 -99 -31 -203 0 -66 19 -104 12 -209 -41 -60 -29
-101 -56 -101 -65 0 -8 21 -24 47 -35 28 -12 80 -52 128 -98 110 -106 161
-126 295 -117 135 9 211 45 260 122 35 56 107 114 142 114 50 0 -6 63 -67 74
-19 4 -57 21 -85 38 -70 43 -118 45 -207 8z m156 -56 c2 -2 -4 -13 -14 -23
-12 -14 -25 -18 -45 -14 -15 3 -54 -2 -85 -12 -71 -20 -99 -6 -39 20 120 52
151 57 183 29z m-288 -34 c28 -16 23 -30 -12 -30 -34 0 -69 15 -69 30 0 13 56
13 81 0z m209 -149 c0 -13 -67 -34 -82 -25 -8 5 0 12 23 20 42 15 59 17 59 5z"/>
<path d="M7531 9149 c-51 -10 -94 -35 -88 -52 6 -18 68 -26 204 -26 115 -1
122 0 128 20 10 30 -11 47 -74 59 -62 12 -108 11 -170 -1z"/>
</g>
</svg>
