<?xml version="1.0" standalone="no"?>
<!DOCTYPE svg PUBLIC "-//W3C//DTD SVG 20010904//EN"
 "http://www.w3.org/TR/2001/REC-SVG-20010904/DTD/svg10.dtd">
<svg version="1.0" xmlns="http://www.w3.org/2000/svg"
 width="1280.000000pt" height="849.000000pt" viewBox="0 0 1280.000000 849.000000"
 preserveAspectRatio="xMidYMid meet">
<metadata>
Created by potrace 1.15, written by Peter Selinger 2001-2017
</metadata>
<g transform="translate(0.000000,849.000000) scale(0.100000,-0.100000)"
fill="#000000" stroke="none">
<path d="M9940 8364 c-471 -37 -871 -79 -900 -94 -12 -7 -19 -47 -33 -196 -9
-103 -19 -189 -21 -191 -2 -2 -26 11 -53 30 -63 46 -134 80 -208 103 -33 10
-67 24 -76 31 -21 17 -80 6 -86 -17 -2 -9 -63 -69 -134 -134 -125 -114 -144
-141 -116 -164 6 -6 98 -27 202 -47 348 -66 350 -67 353 -94 2 -13 21 -83 41
-155 32 -111 37 -141 34 -201 -4 -48 0 -81 10 -105 13 -33 13 -38 -11 -84 -33
-67 -48 -112 -82 -240 -16 -59 -36 -116 -43 -125 -35 -38 -213 -420 -300 -642
-333 -844 -373 -1610 -117 -2242 236 -581 695 -977 1264 -1092 573 -115 1222
18 1799 369 521 317 873 751 1057 1303 186 559 155 1124 -90 1628 -108 223
-227 390 -401 564 -526 526 -1293 745 -1994 568 l-90 -23 -27 42 c-36 58 -120
99 -182 90 l-44 -7 -7 43 c-14 83 -57 204 -106 296 l-49 92 34 68 c108 213
287 389 510 502 69 35 93 52 100 73 12 32 -15 68 -48 66 -12 -1 -95 -7 -186
-15z"/>
<path d="M6425 7319 c-242 -59 -532 -129 -645 -154 -403 -89 -526 -124 -682
-191 -90 -39 -94 -28 77 -218 114 -127 173 -187 207 -212 l28 -19 -666 -475
c-366 -261 -673 -479 -681 -484 -13 -7 -15 -2 -9 35 14 101 26 259 36 489 5
135 13 268 16 297 4 43 2 55 -15 72 -12 12 -29 21 -40 21 -12 0 -66 -55 -148
-152 -394 -466 -800 -993 -1190 -1543 -93 -132 -212 -299 -264 -370 -52 -72
-116 -170 -143 -218 -27 -49 -52 -84 -56 -80 -4 4 -44 114 -90 243 -94 267
-261 717 -310 833 -31 76 -55 102 -82 92 -7 -3 -58 -69 -113 -147 -91 -130
-401 -545 -841 -1128 -208 -275 -400 -541 -522 -719 l-92 -135 6 -50 c12 -113
38 -216 99 -399 35 -105 82 -262 105 -347 57 -217 85 -305 126 -404 29 -70 41
-87 62 -93 38 -9 57 8 60 56 3 38 34 86 284 429 155 213 371 505 480 650 191
252 312 425 339 485 14 31 29 36 29 8 0 -37 69 -246 138 -421 39 -96 69 -176
67 -178 -1 -1 -42 -7 -91 -12 -49 -6 -119 -19 -156 -30 -55 -17 -71 -26 -83
-50 -9 -17 -11 -30 -5 -30 5 0 10 5 10 10 0 6 5 10 11 10 5 0 7 -5 3 -12 -4
-7 -8 -307 -9 -668 -1 -529 -4 -692 -18 -850 -25 -284 -37 -401 -43 -432 -4
-21 1 -33 18 -50 13 -13 22 -31 20 -40 -4 -19 -24 -24 -128 -33 -61 -6 -77 -4
-112 14 -49 25 -134 46 -252 61 -47 6 -155 25 -240 41 -85 17 -201 33 -257 36
-99 6 -102 5 -127 -20 -75 -75 13 -118 322 -157 92 -12 218 -30 281 -41 125
-21 254 -25 298 -8 19 7 46 7 88 0 109 -19 324 -30 780 -41 248 -5 529 -12
625 -15 96 -2 310 -7 475 -11 171 -3 337 -11 385 -19 157 -25 239 -29 258 -12
15 13 59 14 337 7 176 -5 373 -9 438 -10 93 0 117 -3 117 -14 0 -8 6 -16 13
-19 6 -2 120 1 252 7 264 12 325 12 973 1 l443 -7 9 -23 c16 -42 66 -47 103
-9 l26 26 158 -15 c87 -9 217 -21 289 -28 117 -11 131 -14 127 -29 -6 -24 4
-26 192 -44 347 -33 690 -54 1545 -96 396 -19 857 -44 1022 -55 43 -3 127 -2
188 1 103 7 113 9 127 31 15 22 15 26 0 40 -26 26 -171 41 -557 58 -195 8
-449 19 -565 25 -662 31 -1401 60 -1559 60 -77 0 -87 2 -76 15 10 13 51 15
250 15 225 0 239 1 264 21 34 26 37 88 5 117 -22 22 -67 27 -336 38 l-153 7 0
57 c0 55 63 1863 74 2115 3 66 22 597 41 1180 20 583 39 1070 41 1083 4 21 8
23 48 17 31 -5 52 -2 76 10 31 16 32 18 26 66 -13 95 -59 257 -136 474 -43
121 -118 342 -165 490 -95 295 -180 533 -198 552 -7 7 -17 9 -23 5 -20 -13
-160 -254 -316 -547 -86 -159 -201 -368 -257 -463 -109 -187 -173 -309 -215
-412 -15 -36 -33 -77 -41 -91 -24 -43 -4 -57 96 -70 l87 -11 7 -407 c15 -802
-10 -1879 -61 -2621 -23 -340 -102 -1244 -120 -1378 l-5 -43 -452 7 c-249 4
-456 10 -460 14 -5 4 -4 47 2 96 6 49 15 247 21 439 6 193 22 679 35 1080 14
402 32 942 40 1200 8 259 22 607 31 775 8 167 17 409 19 537 4 188 7 238 20
256 20 29 19 49 -5 80 -11 14 -20 30 -20 35 0 19 -23 25 -34 9 -10 -13 -27
-14 -116 -7 -125 11 -422 12 -538 3 -66 -5 -85 -10 -93 -24 -15 -29 -37 -199
-48 -384 -6 -93 -20 -298 -31 -455 -28 -413 -46 -763 -77 -1485 -21 -516 -27
-761 -27 -1265 -1 -344 2 -682 7 -752 l7 -128 -138 0 c-76 0 -268 3 -427 7
l-287 6 6 146 c4 80 27 664 51 1296 50 1288 54 1384 64 1645 10 232 11 229
-92 231 -39 1 -125 4 -189 8 l-117 6 122 111 c67 60 340 303 607 540 547 484
839 749 1115 1012 151 144 191 178 197 164 4 -9 64 -208 134 -441 105 -347
132 -426 151 -438 28 -19 57 -10 83 27 11 15 155 450 319 967 463 1453 444
1389 431 1412 -12 24 -42 41 -67 40 -10 -1 -216 -50 -458 -110z m-2759 -2941
c-1 -106 3 -226 7 -266 l8 -74 -176 3 c-214 4 -205 9 -205 -125 0 -50 -3 -140
-5 -201 -3 -60 -12 -303 -20 -540 -8 -236 -20 -583 -27 -770 -6 -187 -12 -645
-12 -1017 l-1 -678 -260 0 c-143 0 -318 3 -389 7 l-129 6 7 101 c3 56 9 521
12 1035 l7 933 23 24 c29 28 31 67 4 94 -18 18 -29 20 -83 15 -189 -17 -262
-23 -266 -19 -2 2 36 45 85 96 49 51 224 242 389 423 164 182 389 427 500 545
243 260 356 386 454 508 41 51 76 92 76 92 1 0 1 -87 1 -192z"/>
<path d="M9020 2665 c-201 -29 -381 -84 -534 -163 -284 -146 -492 -401 -537
-656 -17 -101 -7 -330 19 -431 91 -349 335 -637 677 -800 265 -126 645 -209
960 -209 255 0 451 42 647 139 360 178 558 460 597 850 13 124 -5 335 -28 335
-5 0 -13 31 -20 68 -15 86 -65 210 -116 287 -54 83 -195 221 -289 285 -219
146 -548 259 -876 300 -112 13 -393 11 -500 -5z"/>
</g>
</svg>
