<?xml version="1.0" standalone="no"?>
<!DOCTYPE svg PUBLIC "-//W3C//DTD SVG 20010904//EN"
 "http://www.w3.org/TR/2001/REC-SVG-20010904/DTD/svg10.dtd">
<svg version="1.0" xmlns="http://www.w3.org/2000/svg"
 width="1119.000000pt" height="1280.000000pt" viewBox="0 0 1119.000000 1280.000000"
 preserveAspectRatio="xMidYMid meet">
<metadata>
Created by potrace 1.15, written by Peter Selinger 2001-2017
</metadata>
<g transform="translate(0.000000,1280.000000) scale(0.100000,-0.100000)"
fill="#ff5722" stroke="none">
<path d="M5525 12740 c-34 -104 -74 -169 -161 -260 -137 -145 -152 -210 -80
-355 19 -38 33 -71 31 -73 -1 -2 -18 3 -36 11 -47 20 -85 64 -99 115 -13 51
-19 49 -104 -29 -58 -52 -86 -94 -86 -125 0 -9 41 -57 91 -107 72 -70 98 -104
124 -160 37 -79 52 -127 39 -127 -29 0 -73 42 -86 81 l-14 43 -27 -55 c-30
-65 -42 -126 -32 -166 4 -16 48 -68 109 -128 110 -107 139 -153 157 -249 25
-138 -50 -271 -142 -251 -22 5 -28 11 -25 23 3 10 8 31 12 47 4 17 20 61 36
99 30 73 35 123 17 159 -16 31 -71 87 -85 87 -7 0 -29 -19 -48 -42 l-36 -42 0
31 c0 53 -38 182 -75 251 -46 87 -123 182 -205 251 l-65 55 -3 -39 c-3 -52
-32 -174 -42 -180 -4 -3 -11 15 -14 40 -11 69 -70 178 -122 224 -118 104 -292
129 -425 60 -36 -18 -39 -23 -39 -62 0 -92 41 -200 111 -294 l38 -51 -42 -7
c-64 -11 -177 -71 -177 -95 0 -4 53 -42 118 -85 338 -225 661 -515 742 -665
28 -53 34 -76 35 -125 0 -55 -27 -145 -44 -145 -3 0 -6 31 -7 68 -1 85 -38
160 -104 210 -50 38 -42 43 -75 -50 -18 -52 -54 -109 -71 -115 -8 -3 -13 33
-16 114 -3 92 -9 129 -26 166 -26 58 -108 147 -184 198 l-58 39 6 -29 c4 -17
4 -42 0 -55 -6 -26 -62 -96 -76 -96 -4 0 -22 29 -39 65 -40 81 -138 214 -183
248 -83 62 -161 80 -231 53 -50 -19 -72 -51 -82 -119 -4 -26 -12 -50 -17 -53
-5 -3 -35 19 -66 48 -140 134 -265 166 -393 102 -48 -24 -139 -116 -139 -140
0 -49 82 -148 146 -179 l35 -16 -35 -39 c-57 -63 -90 -145 -63 -156 8 -3 49 9
91 26 42 16 94 30 115 30 52 0 94 -36 115 -97 25 -72 22 -76 -31 -47 -60 32
-95 28 -218 -23 -85 -36 -95 -38 -199 -38 l-108 0 6 -51 c15 -126 51 -168 128
-146 24 7 69 18 100 24 53 11 60 10 105 -13 51 -26 96 -81 86 -104 -7 -19 -37
-23 -218 -34 -217 -13 -279 -41 -332 -148 -24 -50 -28 -70 -28 -143 0 -151 60
-230 177 -230 69 0 141 30 206 85 23 20 46 34 52 30 5 -3 10 -27 10 -51 0 -37
-6 -51 -29 -75 -16 -16 -43 -32 -60 -35 -17 -4 -31 -10 -31 -14 0 -15 90 -30
177 -30 82 0 146 15 236 54 13 6 17 4 17 -10 0 -35 -25 -67 -60 -79 l-35 -12
75 -36 c111 -54 202 -58 313 -12 14 6 17 2 17 -20 0 -37 -16 -62 -51 -81 l-31
-16 33 -35 c53 -55 121 -83 204 -83 39 0 86 4 104 10 19 5 36 9 37 7 2 -1 -5
-21 -16 -43 -11 -27 -29 -46 -49 -55 -17 -8 -31 -17 -31 -20 0 -23 250 -25
335 -4 68 17 227 94 233 113 2 7 -7 12 -25 12 -37 0 -205 43 -274 70 -138 54
-355 189 -646 401 -291 212 -358 249 -453 249 -58 0 -100 -16 -166 -61 l-47
-32 7 39 c10 56 54 115 106 142 65 34 170 28 260 -16 79 -38 161 -108 196
-168 14 -24 27 -44 29 -44 1 0 2 19 2 42 0 104 122 103 216 -1 39 -43 77 -110
77 -136 0 -24 13 -17 35 18 30 48 64 47 117 -1 24 -22 59 -67 78 -101 36 -62
50 -75 50 -43 0 21 18 42 37 42 7 0 60 -44 117 -97 119 -113 198 -163 311
-199 164 -52 331 -40 451 32 75 45 106 74 156 149 l41 60 -6 -56 c-16 -170
-142 -282 -317 -283 -36 0 -78 3 -95 7 -24 6 -26 5 -12 -3 88 -54 282 -75 405
-43 l72 19 0 -23 c0 -51 27 -91 78 -117 27 -14 62 -40 77 -58 l27 -32 20 27
c11 15 46 41 77 57 59 29 74 50 86 113 l7 35 41 -16 c30 -11 77 -16 162 -16
101 -1 132 3 193 23 87 29 101 42 31 28 -60 -12 -161 3 -218 33 -47 24 -108
85 -133 134 -11 22 -22 67 -25 100 l-5 61 27 -40 c66 -95 141 -157 240 -195
87 -34 260 -35 360 -1 121 40 198 87 320 198 123 111 138 117 158 64 l11 -30
39 66 c53 88 109 143 145 143 32 0 55 -21 67 -60 7 -22 9 -21 27 24 42 108
122 184 201 193 57 7 87 -21 87 -81 l0 -39 31 46 c93 141 273 229 414 203 53
-10 120 -75 140 -137 10 -28 15 -53 12 -56 -3 -3 -21 6 -39 20 -83 63 -195 85
-272 53 -45 -19 -202 -125 -471 -316 -121 -87 -267 -185 -325 -219 -126 -72
-281 -133 -407 -158 -51 -11 -95 -21 -98 -24 -13 -14 166 -97 256 -119 58 -15
232 -16 289 -2 l35 8 -33 18 c-31 16 -72 68 -72 92 0 9 12 9 43 2 23 -5 76 -8
117 -6 84 5 137 27 185 77 l29 31 -37 31 c-29 24 -37 38 -37 64 l0 33 61 -19
c100 -31 190 -20 285 36 l49 29 -26 10 c-42 18 -59 37 -59 67 l0 28 63 -26
c46 -19 86 -27 157 -31 138 -7 270 24 177 42 -19 3 -47 20 -63 37 -24 25 -29
39 -28 75 0 24 4 47 7 51 4 3 26 -10 50 -30 73 -60 124 -81 203 -85 70 -4 72
-3 112 33 53 48 77 110 77 201 -1 120 -58 210 -165 257 -36 16 -78 22 -210 28
-168 7 -199 12 -201 33 -4 41 26 80 86 107 51 24 79 24 150 -1 95 -33 121 -26
154 38 14 26 33 131 26 142 -2 3 -28 3 -57 0 -78 -11 -156 4 -255 47 -103 45
-160 49 -217 15 -21 -12 -39 -22 -41 -22 -6 0 16 73 32 105 37 73 102 84 213
35 85 -37 100 -38 100 -5 0 36 -32 94 -74 134 l-36 35 48 27 c57 32 106 85
127 136 14 33 14 38 -5 69 -53 84 -149 138 -250 138 -90 0 -162 -34 -251 -121
-78 -75 -86 -74 -100 3 -12 62 -32 92 -77 111 -40 17 -112 12 -168 -12 -72
-30 -177 -152 -245 -285 -18 -36 -34 -66 -35 -68 -1 -2 -12 2 -24 8 -33 18
-60 70 -60 118 0 23 -3 42 -7 42 -20 0 -151 -110 -184 -154 -53 -70 -69 -129
-69 -252 0 -62 -4 -104 -10 -104 -19 0 -71 85 -88 142 -9 32 -20 58 -23 58 -3
0 -27 -19 -53 -41 -63 -56 -87 -107 -95 -199 l-6 -75 -19 40 c-27 55 -32 124
-13 179 53 155 328 419 717 687 80 56 152 105 160 110 13 7 11 12 -10 29 -40
33 -96 59 -150 71 -27 6 -50 13 -50 16 0 3 14 21 31 41 49 56 97 167 110 255
14 92 12 95 -90 127 -76 24 -127 25 -206 4 -146 -37 -245 -140 -282 -290 l-17
-69 -17 55 c-10 30 -19 71 -19 90 -1 19 -5 46 -9 60 -7 24 -12 20 -108 -75
-64 -64 -116 -126 -143 -172 -49 -85 -90 -205 -90 -268 0 -50 -11 -58 -28 -21
-6 14 -23 33 -37 42 -26 17 -27 17 -65 -21 -22 -21 -45 -54 -51 -72 -11 -36
-5 -63 45 -196 31 -81 32 -103 7 -110 -35 -9 -71 5 -100 39 -53 60 -65 157
-33 262 25 79 70 142 150 207 36 31 75 69 86 87 30 46 25 109 -14 193 l-33 70
-7 -39 c-7 -39 -56 -96 -81 -96 -17 0 -3 54 32 130 23 50 50 85 119 151 103
99 110 119 60 187 -25 35 -127 122 -142 122 -3 0 -8 -18 -12 -39 -7 -48 -48
-99 -94 -118 -19 -8 -36 -12 -38 -10 -3 2 12 38 32 80 42 88 48 160 20 218 -9
20 -59 81 -109 136 -94 101 -139 174 -161 260 l-13 48 -18 -55z m65 -712 c52
-36 58 -51 37 -105 -50 -131 -59 -162 -65 -213 l-5 -54 42 36 c39 33 101 65
101 52 0 -3 -11 -20 -25 -38 -33 -43 -70 -129 -84 -194 -11 -53 -16 -212 -6
-212 3 0 20 16 37 36 28 32 88 72 88 59 0 -3 -18 -38 -39 -78 -22 -40 -56
-128 -76 -197 -20 -69 -40 -136 -44 -149 -5 -17 -17 18 -45 133 -31 125 -47
171 -81 229 -24 39 -41 74 -39 76 7 7 75 -42 98 -71 l24 -32 7 47 c15 97 -20
243 -79 337 -19 30 -33 56 -31 58 7 8 85 -39 103 -62 11 -14 21 -23 24 -21 13
13 -13 140 -41 200 -41 88 -40 115 4 154 43 37 52 38 95 9z m-940 -618 c30
-16 75 -48 99 -72 47 -46 101 -147 101 -187 0 -16 3 -22 10 -15 13 13 31 146
24 186 l-5 33 21 -37 c32 -59 77 -205 91 -295 7 -45 16 -80 20 -78 4 3 17 44
30 92 23 86 23 87 36 56 21 -53 33 -187 23 -266 -9 -73 -38 -177 -49 -177 -3
0 -14 20 -24 45 -24 57 -82 122 -152 171 l-57 39 28 12 c16 7 35 12 42 13 20
0 14 29 -12 55 -21 21 -30 24 -74 18 -28 -3 -62 -3 -76 1 -25 6 -76 69 -76 92
0 7 16 22 36 33 l36 22 -65 60 c-71 64 -107 134 -107 205 0 32 2 35 23 28 12
-3 47 -19 77 -34z m1896 -7 c-14 -93 -70 -178 -155 -234 l-24 -15 39 -24 c21
-13 40 -25 42 -26 7 -5 -27 -60 -51 -82 -22 -20 -33 -23 -90 -20 -69 3 -99
-11 -110 -52 -4 -15 4 -20 39 -29 24 -6 44 -13 44 -15 0 -2 -29 -23 -65 -46
-71 -46 -109 -88 -148 -165 l-25 -50 -12 30 c-41 104 -50 250 -23 370 15 68
33 100 33 58 0 -25 42 -164 48 -159 2 3 10 42 18 88 16 94 43 183 78 260 l24
53 1 -57 c1 -31 6 -81 12 -110 l12 -52 23 64 c29 82 67 135 129 182 43 33 131
76 159 77 4 1 5 -20 2 -46z m-2516 -645 c0 -53 42 -129 93 -171 39 -32 47 -44
47 -72 0 -42 -38 -75 -86 -75 -33 0 -34 -1 -34 -42 0 -72 -50 -101 -97 -56
-18 17 -38 22 -105 26 -118 6 -129 20 -83 106 14 26 25 51 25 56 0 4 -17 17
-37 27 -30 14 -39 24 -41 49 -2 25 3 37 28 58 40 33 70 33 109 0 33 -27 51
-25 51 7 0 35 29 78 68 98 52 28 62 26 62 -11z m3060 12 c40 -20 70 -63 70
-99 0 -32 19 -35 47 -7 33 34 73 33 113 0 42 -35 39 -82 -5 -104 -57 -29 -56
-28 -30 -68 31 -47 41 -94 23 -109 -7 -6 -50 -13 -95 -14 -68 -3 -85 -8 -105
-27 -48 -45 -98 -17 -98 55 0 42 -1 43 -34 43 -48 0 -86 33 -86 75 0 27 8 39
45 70 52 42 83 96 92 160 3 25 10 45 15 45 5 0 27 -9 48 -20z m-1688 -27 c43
-50 61 -130 38 -173 -6 -10 -52 -39 -103 -63 -50 -25 -107 -56 -125 -70 l-34
-25 26 -17 c33 -22 69 -14 113 26 40 34 47 35 73 9 24 -24 25 -68 2 -96 -28
-36 -100 -82 -155 -100 -51 -17 -51 -18 -23 -25 40 -11 85 -56 96 -99 11 -41
0 -94 -21 -98 -16 -3 -61 36 -85 73 -31 48 -119 28 -199 -46 -129 -119 -98
-207 130 -375 36 -26 65 -51 65 -56 0 -11 -146 -10 -198 2 -152 35 -262 149
-262 270 0 91 69 188 173 241 35 18 37 22 37 67 0 119 41 236 100 286 18 14
64 45 103 68 79 46 161 123 192 181 22 41 35 45 57 20z m313 -20 c32 -59 114
-135 205 -190 47 -28 98 -65 113 -81 40 -42 66 -120 74 -222 l6 -89 58 -36
c96 -59 148 -139 149 -228 0 -98 -65 -183 -182 -237 -63 -29 -85 -34 -176 -38
-70 -3 -103 -1 -101 6 2 5 45 41 95 80 127 98 174 159 174 227 0 85 -127 195
-225 195 -26 0 -37 -7 -59 -38 -28 -41 -68 -68 -84 -58 -16 9 -22 61 -11 99
12 43 52 85 93 95 l31 8 -52 18 c-55 18 -127 64 -155 100 -22 26 -23 65 -2 94
20 29 37 28 76 -7 18 -15 43 -32 56 -36 23 -7 82 10 82 24 0 12 -126 89 -183
111 -32 12 -64 32 -72 44 -29 41 -13 126 33 179 22 25 35 21 57 -20z m-1292
-353 c-41 -122 -31 -305 21 -375 14 -19 16 -16 45 48 17 37 36 85 42 107 28
94 44 24 44 -200 0 -161 2 -179 23 -225 l23 -50 23 56 c12 30 29 65 38 78 l15
22 7 -23 c3 -13 6 -31 6 -40 0 -35 43 -130 79 -176 41 -52 130 -105 195 -118
63 -11 18 -26 -95 -32 -171 -8 -292 46 -458 205 -91 87 -94 91 -56 78 49 -17
95 -19 95 -4 0 26 -75 111 -132 149 -55 36 -83 47 -198 77 l-34 9 35 22 c42
25 82 28 122 8 25 -14 27 -13 27 3 0 27 -41 82 -79 108 -47 32 -106 46 -173
41 -51 -4 -56 -3 -47 13 14 26 56 57 89 64 43 10 107 -12 151 -52 l39 -35 -15
35 c-21 51 -71 134 -117 196 l-41 54 56 -5 c72 -6 132 -44 157 -101 l19 -41 7
29 c11 48 35 88 72 122 20 18 37 32 38 30 1 -1 -9 -36 -23 -77z m2235 38 c33
-35 62 -93 63 -130 0 -18 4 -15 18 17 22 48 54 79 103 100 35 14 108 21 108
10 0 -3 -21 -33 -46 -67 -42 -57 -114 -187 -114 -205 0 -4 15 7 33 25 70 68
158 77 217 22 16 -15 30 -32 30 -37 0 -5 -29 -7 -64 -5 -77 5 -126 -9 -172
-51 -30 -25 -74 -93 -74 -112 0 -3 13 1 30 10 44 23 94 19 127 -9 l28 -24 -30
-7 c-107 -22 -182 -55 -240 -107 -42 -36 -97 -113 -88 -122 10 -10 55 -6 95 8
34 12 29 5 -58 -78 -170 -161 -258 -201 -439 -201 -69 0 -117 5 -130 12 -17
11 -18 12 -3 13 43 0 132 45 183 91 63 59 103 133 113 217 l7 57 21 -30 c12
-17 30 -54 41 -84 l20 -53 24 63 c22 59 24 75 21 224 -2 109 2 174 10 204 l13
44 39 -101 c47 -125 59 -138 81 -86 43 103 45 247 6 358 -12 33 -21 61 -21 63
0 11 20 -1 48 -29z m-1044 -409 c62 -49 75 -129 26 -172 -31 -28 -34 -37 -24
-74 8 -30 20 -29 28 3 10 40 53 74 94 74 28 0 43 -8 74 -40 21 -23 38 -44 38
-49 0 -4 -23 -13 -51 -20 -49 -13 -125 -62 -161 -105 -17 -20 -58 -100 -73
-141 -6 -16 -10 -9 -21 32 -23 88 -78 155 -151 184 -16 7 -55 17 -88 23 l-60
11 35 38 c64 69 150 53 194 -37 22 -45 36 -34 36 30 0 32 -6 46 -31 70 -49 46
-52 59 -30 109 34 76 111 107 165 64z"/>
<path d="M2117 10019 c-108 -25 -281 -135 -391 -247 l-49 -50 44 10 c76 17
254 4 329 -24 l64 -25 -159 -6 c-364 -16 -590 -91 -697 -233 -56 -73 -73 -131
-73 -249 0 -93 18 -206 33 -204 4 0 20 28 36 62 41 87 158 202 253 250 97 48
165 60 293 54 178 -8 334 -79 490 -225 l78 -72 21 32 c11 18 44 56 73 85 l53
52 73 -36 c89 -45 194 -55 284 -29 64 18 72 33 58 108 -26 135 -127 269 -229
304 -20 7 -38 20 -39 29 -2 9 8 41 23 70 l26 55 -30 43 c-75 109 -216 211
-336 243 -56 15 -170 17 -228 3z"/>
<path d="M8806 9969 c-110 -38 -221 -125 -295 -232 l-32 -48 25 -51 c36 -72
34 -82 -21 -103 -97 -37 -203 -182 -222 -304 -13 -80 -8 -87 65 -107 96 -26
186 -16 277 30 l72 36 77 -81 78 -82 69 65 c87 82 140 119 243 168 86 40 205
70 280 70 70 0 178 -28 257 -65 93 -45 210 -159 261 -255 l34 -65 15 45 c10
29 15 87 15 165 1 113 -1 123 -28 180 -69 140 -219 232 -456 280 -41 9 -158
19 -260 22 l-185 6 65 26 c59 23 78 25 212 26 l147 0 -47 48 c-201 205 -452
293 -646 226z"/>
<path d="M3342 9448 c-5 -7 -17 -28 -26 -45 -20 -40 -38 -41 -88 -6 -35 24
-42 25 -76 15 -21 -6 -51 -25 -66 -41 -30 -32 -35 -57 -22 -127 7 -35 5 -44
-17 -70 -14 -17 -64 -52 -111 -78 -52 -29 -86 -55 -86 -64 0 -9 17 -33 38 -55
37 -38 37 -39 34 -111 -3 -83 12 -112 76 -145 37 -19 37 -19 87 6 98 50 128
48 140 -10 19 -84 75 -147 133 -147 23 0 46 14 88 50 39 34 75 56 110 66 55
16 83 13 140 -16 40 -21 57 -18 97 18 38 36 36 72 -8 121 -20 22 -35 49 -35
64 0 35 68 94 126 108 25 7 48 18 51 25 3 8 -14 35 -37 61 -49 56 -66 86 -95
168 -25 71 -41 78 -115 46 -85 -37 -94 -33 -201 79 -94 98 -117 113 -137 88z
m94 -349 c148 -27 192 -116 105 -212 -62 -68 -142 -86 -208 -46 -70 43 -95
153 -50 220 20 30 31 36 88 48 3 0 32 -4 65 -10z"/>
<path d="M7722 9332 c-54 -56 -109 -103 -123 -107 -18 -4 -44 1 -77 15 -27 12
-63 20 -78 18 -26 -3 -32 -10 -50 -63 -27 -80 -39 -101 -91 -163 -25 -29 -43
-58 -40 -65 2 -7 25 -18 51 -25 26 -7 63 -27 86 -48 52 -47 53 -78 5 -124 -46
-45 -48 -87 -4 -124 37 -31 62 -33 114 -5 70 36 148 14 239 -67 30 -28 58 -44
73 -44 57 0 121 68 138 147 10 47 27 57 72 43 21 -7 57 -23 80 -35 l42 -23 45
28 c58 37 67 56 64 139 -3 69 -2 70 35 109 23 24 37 47 35 58 -2 10 -34 35
-79 58 -93 50 -109 63 -125 102 -10 23 -11 41 -4 65 14 46 4 84 -31 119 -44
44 -90 49 -140 15 -22 -14 -47 -24 -54 -21 -8 3 -25 23 -39 45 -14 21 -30 42
-36 46 -6 4 -54 -38 -108 -93z m138 -271 c37 -10 70 -66 70 -119 0 -88 -69
-162 -149 -162 -104 0 -213 135 -167 205 40 61 163 99 246 76z"/>
<path d="M1746 9299 c-198 -49 -401 -263 -480 -506 -21 -62 -30 -61 -85 9 -55
68 -80 123 -99 220 -9 46 -17 85 -19 87 -8 11 -88 -37 -119 -72 -48 -53 -64
-95 -64 -169 0 -70 20 -123 65 -176 27 -32 27 -33 9 -47 -31 -24 -78 -28 -112
-11 -16 8 -47 38 -67 66 -39 53 -78 80 -118 80 -35 0 -116 -44 -172 -94 l-50
-44 30 -7 c93 -21 130 -45 141 -90 4 -15 -4 -58 -19 -108 -39 -122 -42 -160
-23 -212 30 -78 107 -129 260 -175 l90 -27 -65 -11 c-90 -16 -194 -70 -254
-133 l-50 -51 52 4 c126 12 201 -22 253 -116 16 -28 43 -65 60 -81 29 -28 37
-30 103 -30 40 0 86 4 104 8 l32 8 -39 -39 c-49 -49 -53 -86 -12 -124 75 -72
304 -108 491 -78 35 6 65 9 67 8 1 -2 -2 -22 -8 -44 -16 -59 1 -95 61 -128 83
-45 158 -56 362 -53 177 2 187 1 250 -24 37 -14 106 -52 153 -84 48 -32 89
-55 93 -52 24 24 -94 154 -169 187 -24 10 -79 21 -123 25 -103 10 -129 23
-150 79 -21 54 -43 65 -158 75 -87 8 -170 39 -181 66 -4 12 4 15 37 16 42 1
41 1 -28 23 -89 28 -170 72 -201 109 -29 34 -32 61 -6 53 9 -2 33 -8 52 -11
43 -9 38 -4 -65 66 -101 69 -201 162 -226 211 -19 36 -19 38 -1 38 41 0 130
-57 200 -127 l72 -74 0 38 c-1 92 -63 171 -175 223 -66 30 -91 48 -123 89 -45
57 -78 132 -68 157 7 17 11 17 88 -13 26 -9 49 -15 53 -12 3 3 -7 32 -21 64
-45 98 -42 192 9 250 31 37 53 24 88 -49 l29 -61 0 56 c0 83 26 157 70 201 21
21 43 38 49 38 22 0 60 -47 71 -88 11 -44 6 -64 -40 -142 -30 -50 -12 -128 41
-181 29 -29 39 -23 39 24 0 52 31 121 60 137 18 10 25 8 42 -7 39 -35 61 -94
62 -164 1 -62 -1 -69 -57 -161 -72 -120 -87 -179 -64 -259 19 -62 84 -167 117
-187 22 -13 22 -13 13 30 -15 80 -10 210 11 256 17 36 23 43 45 40 20 -2 32
-15 55 -60 42 -86 45 -156 10 -254 -6 -16 -3 -15 19 5 l27 24 26 -24 c33 -30
84 -137 118 -250 38 -125 93 -196 193 -244 63 -30 99 -33 88 -7 -35 80 -48
130 -41 165 4 20 11 37 16 37 5 0 30 -41 56 -91 94 -181 183 -251 481 -372
144 -59 261 -118 348 -176 39 -25 75 -49 81 -53 6 -4 2 11 -9 33 -30 62 -33
127 -8 184 38 86 27 109 -70 150 -114 49 -152 104 -173 248 -7 51 -16 98 -20
105 -21 34 -81 -11 -112 -83 -20 -50 -21 -150 0 -199 17 -41 11 -44 -43 -16
-71 36 -121 120 -121 204 0 35 28 115 53 150 l21 29 -34 -6 c-54 -11 -119 -55
-153 -103 l-32 -45 -8 28 c-12 41 0 138 23 190 32 73 27 94 -36 165 -69 77
-84 110 -84 188 0 33 -2 60 -5 60 -3 0 -22 -9 -43 -19 -55 -29 -102 -83 -122
-142 l-18 -53 -7 37 c-17 88 18 173 96 232 59 44 63 73 21 125 -54 65 -63 106
-43 178 5 17 6 32 2 32 -19 0 -138 -120 -173 -174 -44 -69 -54 -60 -44 38 9
84 44 155 109 224 30 31 59 67 66 79 17 34 13 88 -9 116 -68 86 -237 40 -330
-90 -21 -30 -44 -70 -50 -89 -16 -47 -27 -43 -36 12 -16 112 17 211 93 273 72
60 190 87 260 60 15 -5 46 -26 69 -45 65 -53 134 -42 188 29 69 90 64 198 -13
280 -21 24 -70 57 -83 57 -2 0 -3 -24 -3 -54 0 -39 -6 -62 -21 -83 -23 -32
-97 -73 -133 -73 -30 0 -151 80 -324 214 -73 57 -147 111 -165 120 -41 21
-115 28 -166 15z"/>
<path d="M9285 9246 c-27 -13 -106 -68 -175 -121 -69 -54 -165 -125 -214 -158
l-90 -60 -44 12 c-88 23 -138 85 -130 162 2 21 1 39 -3 39 -15 0 -75 -48 -103
-83 -42 -52 -49 -144 -16 -212 43 -90 150 -135 196 -84 10 12 38 32 62 46 38
22 52 25 110 21 146 -11 255 -110 269 -243 6 -56 -3 -145 -15 -145 -4 0 -18
25 -31 56 -13 30 -45 77 -70 104 -129 136 -321 130 -321 -11 0 -41 14 -64 77
-131 29 -31 64 -81 78 -109 27 -59 41 -144 30 -186 l-7 -28 -20 40 c-22 42
-168 195 -187 195 -7 0 -8 -8 -1 -26 14 -35 13 -101 -2 -127 -6 -12 -23 -38
-38 -57 -43 -56 -44 -68 -8 -98 106 -88 138 -151 123 -249 l-7 -47 -18 53
c-23 69 -88 137 -147 155 -22 7 -23 5 -23 -45 0 -80 -18 -124 -76 -184 -28
-30 -55 -66 -58 -79 -3 -13 5 -60 19 -106 25 -82 31 -157 16 -194 -7 -17 -10
-15 -30 17 -37 60 -84 93 -162 117 l-26 8 31 -61 c66 -128 29 -269 -86 -328
-52 -27 -59 -24 -44 14 41 97 23 203 -45 271 -36 35 -42 38 -55 24 -9 -8 -21
-56 -30 -112 -24 -159 -42 -185 -177 -251 -96 -47 -103 -63 -67 -148 26 -60
24 -123 -6 -185 l-20 -39 62 43 c106 72 186 112 384 194 282 116 369 183 462
352 61 111 65 117 78 98 19 -29 7 -96 -35 -192 -10 -26 18 -23 81 6 106 49
166 125 204 256 29 101 95 237 122 251 19 10 25 8 52 -22 17 -20 26 -25 22
-14 -24 56 -37 125 -32 171 7 80 62 174 101 174 3 0 18 -25 32 -56 23 -52 25
-64 20 -148 -4 -50 -9 -104 -13 -121 l-7 -30 42 40 c23 22 56 68 73 103 26 51
31 74 31 131 0 66 -3 75 -56 168 -31 54 -61 111 -66 126 -19 49 -12 101 20
165 31 63 59 83 85 61 28 -23 54 -88 54 -134 0 -25 4 -45 9 -45 16 0 69 68 81
105 14 43 7 77 -26 127 -28 44 -32 104 -9 148 37 71 96 56 142 -37 24 -50 28
-70 28 -143 l0 -85 21 52 c43 106 66 123 103 77 49 -62 52 -158 7 -243 -41
-79 -34 -87 48 -50 77 34 93 13 55 -70 -36 -82 -83 -127 -173 -170 -110 -52
-160 -111 -173 -206 -3 -25 -3 -45 1 -45 4 0 31 26 60 58 58 61 166 132 203
132 l23 0 -19 -39 c-26 -51 -131 -146 -244 -221 -91 -60 -95 -69 -23 -49 55
15 63 -1 21 -44 -47 -49 -111 -85 -198 -113 l-72 -22 44 -1 c38 -1 42 -3 30
-17 -28 -33 -92 -56 -183 -64 -50 -5 -99 -11 -109 -15 -10 -4 -29 -31 -42 -60
-26 -60 -44 -69 -160 -80 -86 -7 -156 -39 -211 -94 -45 -45 -82 -106 -71 -117
3 -4 40 17 82 45 152 105 229 126 433 116 161 -7 254 5 330 44 76 39 94 85 67
167 -6 21 -6 21 57 8 190 -40 485 16 526 99 16 33 -1 71 -49 112 l-32 27 39
-9 c21 -4 67 -8 101 -8 77 0 100 16 168 115 73 107 87 115 200 115 84 0 92 1
84 16 -13 25 -103 94 -152 118 -44 21 -147 51 -182 52 -11 0 3 7 30 15 167 50
259 105 294 176 28 59 27 85 -10 213 -29 102 -30 110 -16 141 16 32 54 52 132
69 l30 7 -54 49 c-30 27 -73 58 -96 69 -77 37 -124 23 -194 -59 -57 -69 -83
-85 -123 -77 -18 4 -42 13 -52 21 -19 15 -19 16 7 42 43 46 67 110 67 182 0
81 -25 136 -86 190 -49 43 -104 68 -104 48 -1 -7 -7 -46 -14 -88 -17 -96 -54
-174 -112 -235 -53 -56 -43 -63 -93 71 -58 153 -162 281 -305 374 -128 83
-220 100 -311 57z"/>
<path d="M5138 9100 c-27 -18 -64 -57 -90 -95 -24 -35 -46 -65 -50 -65 -4 0
-27 31 -52 69 -64 100 -116 122 -195 81 -51 -25 -89 -72 -103 -126 -7 -24 -17
-44 -23 -44 -6 0 -33 22 -60 50 -27 27 -64 57 -82 65 -29 14 -36 14 -62 1 -69
-36 -100 -150 -62 -228 31 -66 30 -68 -42 -61 -58 5 -65 3 -94 -21 -18 -15
-35 -36 -38 -47 -9 -29 18 -65 68 -90 100 -51 131 -95 90 -131 -31 -27 -61
-30 -113 -13 -27 9 -55 13 -61 9 -17 -10 -5 -101 18 -132 35 -47 65 -62 136
-69 74 -7 72 -4 46 -69 -15 -38 -6 -91 24 -135 33 -49 78 -58 172 -34 105 26
125 13 85 -53 -22 -36 -72 -62 -119 -62 -72 0 -101 -36 -101 -125 0 -30 -2
-55 -5 -55 -3 0 -24 9 -47 21 -87 45 -219 8 -351 -96 -55 -44 -58 -48 -42 -65
18 -20 16 -22 -40 -40 -56 -18 -150 -66 -215 -110 -50 -34 -190 -170 -190
-184 0 -3 13 -12 30 -21 38 -20 109 -19 138 1 30 21 33 17 17 -29 -17 -50 -47
-82 -112 -119 -94 -53 -134 -118 -132 -218 0 -25 5 -61 12 -80 17 -49 45 -50
92 -3 25 25 35 31 31 18 -4 -11 -12 -55 -19 -97 -14 -99 0 -205 43 -316 40
-105 49 -112 101 -78 93 62 175 159 234 275 l27 55 24 -40 c14 -21 41 -69 62
-106 20 -38 44 -68 52 -68 25 1 99 38 151 76 39 28 120 131 132 167 1 4 40
-11 86 -34 l83 -42 64 31 c142 70 180 132 195 314 14 181 50 243 171 298 24
11 48 20 54 20 6 0 -8 -40 -32 -89 -75 -152 -124 -341 -124 -473 0 -42 3 -48
21 -48 33 0 86 29 105 58 10 15 23 45 30 67 l12 40 12 -30 c7 -16 15 -55 18
-86 4 -49 -1 -68 -32 -141 -55 -128 -48 -168 45 -252 77 -69 80 -70 126 -37
22 16 49 41 60 55 12 14 24 26 27 26 3 0 6 -24 6 -52 1 -73 26 -122 109 -213
39 -43 81 -100 94 -126 12 -27 24 -48 27 -49 3 0 18 24 33 54 16 30 62 91 103
136 77 85 91 115 96 202 2 27 3 48 4 48 0 0 24 -22 52 -50 67 -64 85 -64 157
1 96 89 106 132 56 246 -42 95 -47 138 -26 209 l18 59 16 -47 c24 -70 78 -118
132 -118 22 0 22 2 16 98 -8 129 -47 273 -108 401 -27 57 -47 106 -44 109 10
10 124 -51 154 -82 46 -48 62 -98 72 -230 14 -184 56 -253 196 -318 l63 -30
55 26 c31 14 69 34 84 45 l28 20 22 -45 c32 -67 114 -149 184 -184 33 -16 68
-30 77 -30 10 0 33 30 60 78 24 42 52 90 63 105 l19 28 33 -64 c45 -92 118
-180 195 -238 36 -27 70 -49 76 -49 15 0 71 128 89 203 19 78 19 207 1 276
l-13 53 36 -36 c20 -20 45 -36 54 -36 29 0 50 64 45 140 -5 87 -30 136 -87
171 -95 58 -121 79 -141 118 -11 22 -20 47 -20 56 0 15 2 15 22 1 32 -23 120
-21 149 2 l22 19 -34 43 c-75 93 -237 204 -367 250 -58 21 -61 24 -47 40 15
16 12 21 -32 59 -70 61 -178 112 -250 118 -47 4 -69 1 -108 -16 -54 -24 -59
-25 -50 -11 11 17 -7 120 -24 141 -11 13 -37 23 -81 30 -78 12 -107 29 -126
75 -25 60 -20 61 129 33 77 -15 103 -7 140 43 27 37 34 116 13 157 -19 36 -19
36 61 45 70 7 104 26 131 74 24 43 31 132 10 132 -6 0 -35 -7 -64 -17 -50 -15
-53 -15 -85 3 -37 22 -48 56 -28 80 7 9 34 26 59 39 112 57 135 102 79 157
-29 30 -32 31 -100 25 -42 -4 -69 -2 -69 4 0 5 9 27 20 49 40 78 11 194 -56
232 -42 25 -70 13 -141 -58 -30 -30 -61 -53 -67 -51 -7 3 -18 25 -25 48 -15
51 -51 93 -103 120 -78 40 -129 18 -190 -81 -24 -38 -46 -70 -50 -70 -4 0 -21
21 -39 48 -46 68 -79 101 -121 123 -45 23 -60 24 -97 4 -43 -22 -57 -66 -42
-127 7 -27 10 -52 7 -55 -3 -4 -30 0 -60 7 -77 18 -124 8 -163 -35 -36 -38
-42 -74 -18 -115 20 -34 18 -46 -7 -70 -29 -27 -64 -25 -93 4 l-25 25 19 42
c14 31 17 49 10 66 -18 47 -30 63 -61 79 -31 16 -67 16 -167 -3 -32 -5 -34 -4
-27 18 4 13 10 45 13 70 4 38 1 50 -18 73 -37 42 -84 44 -141 6z m1106 -210
c123 -38 228 -165 258 -311 7 -33 16 -59 20 -59 4 0 21 24 38 53 23 41 30 64
30 109 0 31 -4 68 -10 82 -13 36 4 33 34 -7 75 -99 75 -216 -1 -315 l-26 -34
24 13 c13 7 52 30 87 51 34 21 62 35 62 31 0 -4 -19 -38 -42 -77 -52 -89 -181
-223 -270 -283 -65 -43 -228 -119 -228 -107 0 4 22 31 50 61 65 71 117 177
137 282 37 187 -34 338 -182 388 -66 22 -170 22 -213 -1 -86 -45 -98 -182 -21
-222 41 -21 77 -17 105 11 27 27 26 54 -2 86 -23 26 -16 30 24 14 52 -21 82
-58 82 -101 0 -27 -9 -43 -42 -77 -78 -77 -161 -82 -255 -15 -107 77 -147 216
-87 304 33 47 44 57 117 94 103 54 202 63 311 30z m-993 -39 c104 -40 179
-127 179 -208 -1 -111 -138 -253 -246 -253 -76 0 -174 80 -174 142 0 31 32 73
70 93 45 23 51 18 28 -21 l-21 -35 20 -27 c25 -33 82 -41 120 -17 32 22 56 79
48 116 -9 39 -52 89 -92 105 -77 33 -211 8 -281 -52 -156 -133 -144 -392 27
-604 71 -88 69 -82 24 -66 -161 57 -335 191 -432 334 -44 66 -74 122 -65 122
6 0 37 -18 154 -89 l25 -15 -27 30 c-68 75 -86 181 -44 269 24 50 88 123 71
80 -26 -67 -14 -169 27 -227 26 -38 35 -35 43 15 25 151 129 281 258 323 63
21 218 13 288 -15z m392 -270 c19 -33 67 -66 110 -76 56 -15 1 -60 -91 -74
-79 -12 -168 1 -197 29 l-20 21 23 6 c56 14 108 49 127 85 11 21 22 38 25 38
3 0 13 -13 23 -29z m0 -312 l-36 -37 -36 37 -36 36 38 28 c20 15 37 32 37 37
0 5 15 -7 34 -27 l34 -38 -35 -36z m-344 -359 c65 -66 150 -113 239 -131 118
-24 252 17 345 106 52 50 107 130 128 188 7 20 16 37 20 37 13 0 69 -127 86
-195 10 -38 18 -71 18 -72 1 -1 19 6 41 17 131 65 280 38 397 -71 l52 -49 -44
15 c-57 20 -144 19 -187 -1 -18 -9 -64 -43 -101 -76 -124 -110 -210 -148 -331
-148 l-67 1 35 15 c45 19 87 59 111 106 23 45 37 148 20 148 -6 0 -11 -4 -11
-9 0 -23 -105 -122 -156 -147 -67 -33 -158 -41 -232 -21 l-52 14 6 -36 c29
-170 107 -352 210 -486 19 -26 34 -49 32 -51 -2 -2 -26 7 -53 20 -57 27 -123
92 -153 151 l-21 40 -1 -36 c0 -53 35 -179 67 -241 15 -29 29 -57 31 -61 2 -4
-17 2 -42 15 -25 12 -48 19 -51 16 -4 -3 -12 -55 -19 -114 -13 -115 -20 -115
-31 1 -3 39 -8 82 -11 97 l-6 28 -38 -20 c-54 -28 -65 -25 -40 9 35 50 71 161
76 236 5 69 5 70 -10 37 -36 -78 -104 -139 -190 -172 -29 -11 -29 -10 -12 12
108 147 176 285 212 425 34 135 34 134 -23 117 -133 -40 -285 16 -373 138
l-28 38 -6 -26 c-10 -37 18 -123 53 -165 17 -20 50 -47 73 -59 l43 -22 -85 5
c-123 6 -181 32 -288 127 -49 43 -103 85 -120 94 -39 20 -123 21 -188 2 l-49
-15 50 46 c28 25 79 60 115 77 86 40 176 42 266 5 l62 -26 12 56 c13 57 49
148 76 189 15 22 16 22 51 -49 20 -41 59 -95 92 -129z m-706 -312 c-38 -40
-83 -114 -83 -137 0 -5 23 6 51 24 28 19 69 40 92 46 56 15 152 6 207 -19 l45
-20 -45 -1 c-198 -4 -366 -138 -421 -336 l-16 -60 -15 30 c-9 17 -19 44 -22
62 -6 28 -2 38 32 75 21 24 42 51 45 61 10 26 -3 77 -19 77 -8 0 -48 -33 -89
-73 -85 -84 -134 -173 -161 -294 -9 -41 -20 -71 -24 -66 -5 4 -15 30 -24 56
-45 135 8 241 172 341 70 43 71 59 2 58 -56 -1 -141 -44 -181 -90 l-31 -37 7
30 c13 60 54 135 97 178 80 79 226 134 363 136 l59 1 -41 -42z m2229 27 c180
-38 312 -150 342 -291 l7 -31 -50 48 c-29 28 -65 52 -88 58 -47 13 -120 14
-128 2 -3 -5 29 -31 70 -56 165 -103 202 -193 148 -360 l-16 -50 -23 92 c-12
51 -37 121 -55 155 -34 65 -167 208 -193 208 -17 0 -29 -44 -20 -73 4 -12 24
-41 45 -64 45 -49 46 -61 18 -123 l-21 -45 -17 60 c-34 122 -120 234 -219 284
-54 27 -144 51 -202 52 l-45 1 45 20 c55 25 151 34 207 19 23 -6 64 -27 92
-46 28 -18 51 -29 51 -24 0 23 -45 97 -83 137 l-41 42 54 0 c30 0 85 -7 122
-15z"/>
<path d="M2717 8675 c-51 -19 -87 -49 -114 -93 -57 -93 -5 -152 134 -152 l67
0 -33 -24 c-116 -86 -141 -246 -58 -369 l20 -29 37 89 c20 48 54 117 75 153
42 70 125 160 148 160 8 0 22 -11 31 -25 42 -63 148 -9 206 106 39 76 14 129
-60 129 l-40 0 20 -32 c24 -40 25 -69 5 -108 -18 -35 -36 -37 -98 -10 l-46 21
-41 -21 c-56 -29 -122 -115 -188 -250 l-57 -114 -7 43 c-9 51 4 127 31 178 20
39 80 102 116 121 17 10 14 11 -21 12 -56 0 -137 26 -159 50 -34 38 12 67 173
109 l107 29 -40 18 c-52 23 -159 28 -208 9z"/>
<path d="M3872 8637 c-6 -7 -18 -44 -28 -82 -9 -39 -24 -78 -34 -88 -17 -18
-19 -17 -69 27 -60 53 -83 61 -172 60 -51 0 -80 -7 -122 -27 -30 -15 -57 -34
-60 -41 -3 -8 17 -35 48 -64 55 -52 84 -92 66 -92 -5 0 -62 9 -127 20 -141 24
-196 17 -271 -33 -55 -38 -83 -86 -83 -142 0 -42 29 -102 55 -111 27 -11 16
-22 -28 -28 -96 -15 -197 -105 -213 -193 -19 -100 21 -194 98 -232 93 -45 177
-37 268 24 38 25 50 30 46 17 -38 -135 7 -263 88 -246 53 11 126 56 168 104
40 44 98 151 98 180 0 8 10 -3 23 -25 37 -65 119 -107 181 -91 43 11 85 55
117 124 17 37 40 86 51 110 11 23 26 42 33 42 7 0 39 -13 70 -30 34 -18 72
-30 94 -30 33 1 40 6 84 71 l48 69 -45 51 c-51 56 -76 123 -76 200 l0 47 -46
-14 c-73 -22 -144 -65 -200 -121 -28 -29 -54 -50 -58 -46 -3 3 -6 28 -6 54 0
40 5 55 33 85 l32 37 -30 -7 c-91 -20 -345 -180 -345 -216 0 -6 -4 -10 -9 -10
-14 0 7 80 39 147 73 149 232 252 441 285 43 7 79 15 79 19 0 11 -138 164
-169 187 -34 25 -54 28 -69 9z"/>
<path d="M8270 8629 l-45 -21 91 -23 c104 -26 173 -54 193 -79 12 -14 11 -19
-4 -36 -25 -28 -118 -53 -169 -47 -34 4 -38 3 -22 -6 85 -50 148 -144 160
-237 7 -55 -7 -127 -19 -95 -53 143 -169 312 -239 348 l-38 20 -44 -21 c-57
-28 -68 -28 -93 4 -26 33 -27 70 -1 112 l20 32 -38 0 c-85 0 -104 -56 -52
-147 36 -63 86 -103 138 -110 33 -4 41 -2 55 21 10 14 25 26 34 26 45 0 174
-181 230 -322 14 -38 30 -68 34 -68 5 0 21 24 36 53 22 42 27 66 27 122 0 84
-25 140 -89 200 l-42 40 66 0 c72 1 126 18 141 46 48 88 -82 209 -225 209 -40
0 -75 -8 -105 -21z"/>
<path d="M7181 8523 l-104 -107 110 -22 c149 -29 248 -77 331 -160 65 -65 114
-153 128 -229 l7 -39 -59 52 c-103 92 -214 155 -309 176 -28 6 -29 5 -11 -9
33 -26 56 -69 56 -107 0 -68 -7 -69 -69 -8 -57 58 -147 111 -208 125 -32 6
-33 6 -33 -27 0 -68 -30 -152 -75 -210 l-44 -56 47 -69 c47 -67 48 -68 87 -65
38 4 72 16 124 46 13 8 30 12 38 9 7 -3 38 -56 68 -118 44 -91 61 -117 90
-135 73 -45 180 -8 220 77 l18 37 12 -39 c31 -106 103 -192 197 -239 62 -31
101 -33 128 -6 28 28 33 60 28 161 l-5 89 32 -29 c51 -44 115 -65 183 -58 137
12 212 96 199 222 -7 68 -36 124 -89 169 -37 32 -117 66 -154 66 -7 0 2 22 22
51 55 82 42 151 -40 214 -76 58 -165 68 -318 36 -84 -17 -88 -18 -88 -1 0 10
27 43 61 74 59 55 61 58 44 76 -28 31 -123 62 -190 63 -68 1 -108 -16 -168
-69 -20 -19 -41 -34 -47 -34 -14 0 -37 49 -45 100 -11 65 -31 99 -60 100 -5 0
-57 -48 -114 -107z"/>
<path d="M1446 7155 c-38 -14 -96 -40 -130 -58 -79 -43 -84 -66 -24 -103 24
-14 51 -33 61 -42 16 -14 16 -16 1 -34 -27 -29 -88 -23 -171 17 -40 19 -86 35
-102 35 -125 0 -300 -161 -277 -254 4 -15 30 -39 71 -64 36 -23 65 -45 65 -50
0 -16 -35 -41 -80 -57 -25 -9 -108 -22 -185 -30 -152 -15 -178 -21 -244 -54
-83 -43 -191 -175 -191 -234 l0 -30 89 7 c82 7 91 6 110 -13 24 -24 20 -61
-10 -123 -26 -50 -77 -90 -199 -153 -113 -58 -160 -98 -185 -159 -28 -67 -15
-196 19 -196 7 0 24 20 40 44 35 55 84 106 114 117 35 13 96 11 117 -4 30 -23
11 -60 -63 -124 -120 -103 -206 -196 -237 -258 -26 -52 -30 -71 -30 -145 0
-50 6 -99 14 -120 18 -44 59 -100 73 -100 6 0 41 20 77 45 77 52 118 65 127
41 3 -8 -9 -64 -28 -123 -42 -136 -47 -269 -12 -344 49 -105 124 -154 199
-129 81 27 136 102 150 208 6 42 10 52 26 52 31 0 67 -29 109 -88 60 -83 82
-151 90 -272 5 -79 12 -117 29 -152 47 -97 141 -178 224 -193 36 -7 39 -5 101
59 34 36 71 66 81 66 10 0 48 -31 84 -70 73 -78 87 -82 189 -59 69 16 110 6
177 -47 60 -46 74 -46 75 2 0 22 38 64 58 64 7 0 17 11 23 23 9 20 5 35 -20
86 -46 90 -38 94 101 61 153 -37 220 -22 275 59 42 62 23 119 -48 149 -39 17
-39 17 98 17 135 0 140 1 203 32 38 19 87 55 119 87 l54 55 31 -16 c44 -23
120 -22 153 3 88 66 104 188 34 258 -27 27 -38 30 -114 35 -46 3 -91 12 -99
19 -11 9 -17 36 -20 86 -3 61 -8 79 -32 110 -35 47 -103 81 -140 72 -16 -4
-35 -20 -44 -37 -30 -55 -53 -79 -74 -79 -23 0 -108 46 -108 59 0 4 12 18 26
32 29 26 63 93 64 122 0 36 -31 85 -65 101 -54 26 -78 20 -131 -29 -27 -25
-83 -62 -123 -83 -63 -31 -87 -38 -150 -40 -65 -3 -83 0 -121 20 -60 33 -100
106 -100 185 l0 55 37 -32 c74 -66 203 -106 298 -95 69 9 168 58 205 103 64
77 77 235 25 300 -1 1 -24 -9 -51 -23 -69 -36 -115 -41 -170 -20 -55 21 -107
73 -142 140 -30 60 -42 180 -22 241 13 41 61 124 71 124 3 0 9 -22 12 -49 15
-125 118 -220 240 -221 84 0 136 36 151 106 10 46 -8 82 -80 155 -58 61 -64
71 -64 108 0 39 22 93 53 134 19 23 74 22 114 -3 38 -23 63 -67 63 -112 1 -31
2 -30 35 32 68 128 167 225 290 285 96 48 173 65 285 65 115 0 210 -23 325
-80 l80 -40 -55 51 c-67 61 -208 157 -281 192 -126 59 -225 80 -494 106 -139
13 -216 37 -319 99 -143 87 -180 90 -317 23 -109 -54 -131 -50 -202 30 -28 32
-66 66 -83 74 -46 22 -119 18 -198 -10z m1109 -303 l60 -19 -120 -5 c-135 -7
-209 -24 -300 -70 -127 -63 -218 -155 -297 -301 l-39 -72 4 91 c2 75 8 101 32
150 58 117 180 203 340 238 88 20 236 14 320 -12z m-595 -82 c-85 -107 -232
-172 -348 -155 -54 8 -152 43 -152 54 0 5 46 11 103 14 117 6 246 40 347 91
85 43 87 43 50 -4z m-432 -194 c17 -9 32 -20 32 -25 0 -16 -76 -84 -115 -102
-54 -25 -156 -25 -212 1 -24 10 -43 23 -43 27 0 17 76 82 120 103 54 25 165
23 218 -4z m205 -124 c41 -57 49 -140 19 -199 -22 -42 -74 -93 -96 -93 -19 0
-55 72 -62 124 -4 26 -1 65 6 90 13 47 75 129 92 124 6 -2 24 -23 41 -46z
m-374 -71 c37 -10 35 -23 -10 -75 -79 -89 -186 -122 -297 -91 -35 10 -65 22
-68 27 -15 24 97 108 179 133 44 14 155 18 196 6z m168 -105 c49 -97 39 -219
-26 -296 -24 -30 -31 -33 -44 -21 -9 7 -25 37 -37 67 -35 96 -23 210 33 291
26 38 37 32 74 -41z m-252 -108 c-37 -125 -207 -266 -340 -285 l-48 -6 24 43
c32 57 134 160 193 195 47 27 153 74 169 75 5 0 5 -10 2 -22z m52 -190 c53
-55 73 -102 73 -177 0 -93 -37 -161 -86 -161 -28 0 -77 58 -93 109 -24 83 -6
202 41 258 15 19 20 17 65 -29z m-209 -171 c-5 -94 -40 -185 -98 -251 -31 -35
-96 -76 -121 -76 -32 0 32 175 99 272 33 48 111 138 119 138 3 0 4 -37 1 -83z
m98 -179 c39 -47 54 -90 54 -155 0 -98 -53 -178 -101 -153 -32 17 -69 107 -69
165 0 66 50 175 81 175 4 0 20 -15 35 -32z m-443 -663 c10 -28 34 -72 55 -100
175 -231 524 -230 684 2 27 41 32 44 39 27 12 -31 9 -126 -5 -167 -21 -56 -62
-104 -119 -138 l-52 -30 45 6 c89 12 179 46 223 85 46 41 73 93 108 208 17 55
33 86 67 123 72 80 174 128 201 95 31 -37 -26 -165 -112 -255 l-42 -43 35 7
c52 10 126 46 214 103 43 29 88 52 100 53 47 3 73 -4 120 -29 l49 -27 -68 -8
c-131 -14 -183 -52 -287 -204 -100 -147 -167 -192 -340 -228 -90 -19 -297 -19
-414 0 -258 42 -452 154 -534 307 -28 53 -35 76 -38 144 -3 56 1 99 12 140 26
90 29 93 36 34 4 -31 14 -78 23 -105z"/>
<path d="M9542 7124 c-18 -9 -50 -38 -70 -64 -47 -60 -84 -84 -120 -75 -14 3
-58 22 -97 41 -124 60 -170 58 -286 -11 -137 -83 -210 -105 -403 -121 -207
-17 -300 -39 -431 -103 -128 -62 -220 -128 -339 -242 -106 -101 -137 -152
-161 -264 -17 -85 -37 -105 -104 -105 -74 0 -134 26 -202 87 -57 51 -65 55
-100 50 -20 -3 -58 -19 -84 -37 -56 -38 -180 -162 -215 -213 -14 -20 -28 -37
-32 -37 -13 0 -9 74 8 129 18 63 90 141 147 162 20 7 37 16 37 20 0 18 -93 51
-144 51 -122 1 -217 -86 -290 -264 -12 -30 -19 -36 -33 -31 -76 27 -133 166
-100 244 17 40 67 84 110 94 15 4 27 10 27 15 0 13 -35 39 -80 59 -144 66
-313 -27 -328 -179 -2 -28 -7 -50 -9 -50 -3 0 -18 11 -35 25 -72 61 -195 0
-213 -104 -5 -33 -2 -48 20 -85 24 -41 47 -156 32 -156 -4 0 -18 22 -31 48
-27 53 -79 104 -132 129 -32 16 -35 15 -55 -3 -35 -31 -79 -106 -79 -135 0
-15 16 -49 35 -75 47 -66 85 -144 85 -174 0 -26 -18 -100 -25 -100 -2 0 -29
25 -59 55 -65 65 -152 110 -211 109 -70 -1 -195 -77 -240 -144 -11 -16 -23
-30 -27 -30 -4 0 -12 26 -18 57 -15 72 -4 114 50 182 53 67 63 94 50 139 -10
37 -74 132 -88 132 -4 0 -31 -14 -60 -30 -53 -31 -108 -94 -118 -137 -4 -13
-11 -23 -16 -23 -18 0 -1 93 28 152 32 65 28 110 -13 158 -53 63 -116 76 -176
36 l-35 -24 -7 36 c-29 159 -170 248 -313 198 -42 -15 -102 -54 -102 -67 0 -3
19 -14 43 -23 24 -9 57 -30 73 -47 26 -27 29 -37 29 -92 -1 -49 -7 -73 -29
-114 -30 -54 -68 -88 -90 -80 -7 3 -21 27 -31 54 -54 146 -163 243 -275 243
-48 0 -150 -33 -150 -49 0 -4 17 -13 37 -20 20 -8 58 -35 84 -61 54 -54 82
-129 77 -201 l-3 -42 -35 49 c-58 81 -185 200 -245 229 -68 34 -94 29 -148
-27 -50 -51 -131 -89 -196 -90 -72 -2 -97 18 -111 89 -18 91 -49 160 -98 214
-56 63 -106 89 -171 89 -61 0 -101 -29 -126 -92 l-17 -43 -15 30 c-39 77 -104
115 -198 115 -112 0 -185 -54 -185 -136 0 -34 7 -51 32 -79 l31 -36 -19 -26
c-34 -45 -45 -48 -135 -34 -102 16 -152 6 -206 -42 -46 -41 -73 -99 -73 -162
0 -86 35 -128 138 -166 44 -16 38 -35 -22 -79 -27 -19 -68 -52 -90 -72 -40
-35 -41 -38 -41 -100 0 -106 46 -148 162 -148 71 0 94 -11 76 -37 -33 -47 -53
-95 -53 -128 0 -40 22 -100 48 -129 27 -31 93 -56 147 -56 62 0 114 24 183 84
30 25 60 46 68 46 17 0 51 -52 59 -91 8 -37 56 -79 101 -89 109 -25 227 60
227 164 0 28 -9 59 -29 94 l-29 51 21 28 c50 69 210 112 353 94 120 -16 217
-54 316 -125 45 -33 56 -36 116 -36 98 0 153 -23 226 -95 63 -61 88 -106 37
-66 -42 33 -130 61 -192 61 -118 0 -254 -53 -394 -154 -134 -96 -171 -105
-243 -61 -75 46 -106 57 -144 50 -74 -13 -141 -82 -141 -143 0 -63 57 -131
142 -172 l58 -27 -51 -7 c-73 -10 -149 -41 -186 -76 -18 -17 -58 -62 -88 -100
-30 -38 -71 -81 -89 -95 -44 -33 -119 -62 -185 -71 -28 -4 -51 -10 -51 -15 0
-19 70 -97 114 -127 113 -75 236 -81 366 -15 l75 38 -18 -55 c-13 -37 -18 -72
-15 -109 4 -46 10 -59 38 -84 31 -28 37 -29 95 -25 117 10 278 111 380 239 90
113 126 148 179 174 70 34 146 43 169 21 15 -16 15 -21 2 -52 -22 -54 -72
-111 -120 -140 -24 -14 -84 -36 -134 -49 -117 -32 -163 -56 -222 -117 -50 -50
-134 -204 -145 -264 -6 -30 -4 -32 40 -49 40 -16 52 -16 89 -5 23 7 58 29 79
50 46 46 50 28 12 -48 -20 -41 -43 -65 -100 -107 -40 -30 -80 -66 -89 -79 -9
-13 -20 -64 -25 -114 -11 -101 -35 -175 -80 -242 -29 -43 -29 -45 -9 -52 97
-36 232 -27 339 24 89 42 226 181 296 301 l52 87 30 -35 c35 -39 47 -85 39
-152 l-5 -46 54 6 c77 8 166 51 218 107 83 89 107 160 115 345 l6 140 43 -41
c41 -40 42 -44 42 -105 l0 -64 25 25 c13 14 44 53 67 87 24 34 77 100 119 147
94 105 186 238 256 370 l54 101 -7 -50 c-9 -66 -50 -197 -82 -260 -38 -77
-109 -176 -237 -335 -118 -147 -209 -301 -203 -344 2 -14 16 -24 48 -34 55
-16 121 -4 180 33 l40 25 -36 -47 c-21 -27 -46 -68 -58 -93 -29 -64 -28 -181
2 -278 l23 -74 52 7 c80 11 123 33 170 85 44 49 77 126 77 181 0 40 17 36 35
-7 26 -62 19 -121 -20 -189 -19 -33 -42 -76 -51 -95 -25 -54 -7 -76 106 -132
144 -71 172 -105 288 -361 l18 -38 42 108 c45 115 89 185 145 227 18 14 78 45
132 68 126 55 142 77 106 141 -87 152 -95 183 -65 270 19 55 34 61 34 12 0
-49 37 -140 73 -181 16 -20 52 -46 78 -60 46 -23 124 -34 146 -21 21 13 47
132 47 217 0 73 -4 92 -27 138 -15 29 -44 71 -64 93 l-37 40 53 -32 c59 -37
144 -49 204 -30 35 12 35 12 25 49 -14 49 -69 157 -107 209 -17 24 -67 85
-111 138 -175 206 -243 323 -285 491 -36 141 -31 151 23 44 79 -157 153 -264
292 -420 37 -41 85 -102 107 -135 23 -34 48 -67 57 -74 14 -12 16 -7 16 49 0
59 2 64 39 101 21 22 43 39 47 39 5 0 8 -43 6 -96 -7 -200 60 -365 179 -439
43 -28 130 -55 176 -55 l33 0 -6 44 c-9 64 3 112 38 151 l30 35 57 -92 c80
-131 194 -243 295 -294 79 -38 82 -39 190 -39 63 1 123 6 139 13 l27 12 -33
52 c-50 80 -67 130 -77 237 l-9 96 -44 40 c-25 22 -66 58 -92 79 -29 24 -57
60 -71 90 -29 63 -31 91 -3 54 48 -65 151 -90 211 -50 l27 18 -33 76 c-91 210
-161 276 -341 324 -121 32 -139 41 -194 95 -52 52 -73 92 -69 127 3 23 8 28
38 30 19 2 62 -4 95 -14 65 -20 105 -55 248 -216 145 -165 372 -266 444 -198
46 42 55 158 19 229 -9 17 -14 31 -12 31 3 0 26 -13 53 -30 161 -99 368 -64
474 83 35 48 36 57 6 57 -47 0 -144 32 -190 63 -26 18 -77 69 -113 114 -93
115 -158 156 -268 169 l-55 7 57 27 c164 77 189 237 48 301 -56 25 -96 24
-140 -6 -111 -75 -135 -74 -263 11 -202 135 -299 176 -423 177 -77 0 -151 -23
-192 -60 -10 -9 -21 -13 -24 -10 -13 12 100 118 154 144 43 21 71 27 129 28
65 1 78 5 117 34 69 49 184 100 266 117 141 30 307 1 386 -68 40 -35 41 -49
13 -94 -47 -76 -43 -136 14 -201 39 -45 82 -63 145 -63 56 0 109 29 128 70 39
86 51 105 65 108 8 1 47 -22 85 -52 84 -68 145 -86 221 -67 65 17 108 52 128
106 23 58 16 123 -19 176 -15 22 -24 44 -21 49 3 6 35 10 71 10 90 0 130 19
154 72 22 49 24 77 10 130 -8 28 -25 47 -73 81 -105 76 -125 101 -89 114 78
26 120 53 135 86 42 87 9 207 -71 258 -60 38 -98 44 -188 30 -87 -15 -106 -10
-135 30 l-21 30 25 27 c54 57 57 119 9 165 -39 37 -93 57 -157 57 -91 0 -168
-44 -196 -112 l-12 -29 -26 47 c-36 66 -71 89 -133 88 l-50 -1 55 29 c185 93
413 96 591 6 120 -60 223 -161 288 -282 l32 -61 7 38 c12 71 62 117 130 117
31 0 40 -6 63 -38 32 -47 45 -90 39 -126 -3 -15 -36 -60 -73 -100 -37 -40 -70
-85 -74 -100 -10 -42 29 -116 74 -139 75 -39 205 -1 264 76 30 39 56 108 56
148 0 40 10 36 41 -14 84 -135 63 -305 -51 -411 -77 -72 -142 -80 -243 -30
-27 13 -52 22 -57 19 -16 -10 -32 -108 -27 -156 18 -147 135 -239 307 -239 96
0 168 24 240 81 27 21 52 39 55 39 3 0 3 -24 -1 -52 -8 -75 -46 -148 -91 -178
-32 -22 -47 -25 -123 -25 -77 0 -92 3 -153 33 -37 19 -93 57 -125 86 l-57 53
-47 -12 c-59 -15 -75 -28 -89 -75 -15 -49 1 -99 49 -152 34 -37 34 -39 16 -53
-33 -25 -84 -46 -102 -43 -9 2 -26 19 -39 38 -46 72 -54 80 -79 80 -31 0 -92
-31 -121 -62 -31 -33 -43 -71 -43 -137 0 -76 -11 -85 -108 -86 -87 -1 -112
-13 -145 -65 -45 -72 -20 -178 53 -227 39 -27 110 -31 154 -8 29 15 29 15 92
-45 35 -34 88 -73 121 -88 55 -25 66 -27 197 -27 138 1 138 1 100 -16 -59 -25
-78 -51 -71 -96 19 -114 123 -156 285 -114 88 23 128 26 136 12 3 -5 -8 -38
-24 -73 -17 -36 -28 -72 -25 -79 3 -8 21 -23 40 -34 22 -11 38 -28 41 -44 14
-65 14 -65 89 -10 77 56 60 54 221 33 66 -8 96 7 149 77 58 76 73 75 152 -5
35 -36 73 -66 82 -66 35 0 140 61 181 106 57 62 78 115 85 215 9 117 22 174
58 243 40 75 108 146 141 146 22 0 25 -5 31 -47 11 -81 26 -114 70 -159 47
-46 90 -61 152 -51 46 8 87 47 121 117 24 49 27 66 26 155 0 81 -6 117 -28
190 -43 134 -44 145 -13 145 14 0 59 -22 100 -50 41 -27 80 -50 85 -50 20 0
60 65 77 124 24 81 16 168 -21 244 -28 57 -106 142 -246 267 -93 83 -89 125
12 127 54 1 92 -26 150 -104 28 -37 55 -68 60 -68 19 0 30 40 30 105 0 122
-47 178 -219 265 -108 54 -135 75 -172 129 -21 32 -29 57 -29 87 0 59 18 68
126 59 l84 -7 0 30 c0 42 -72 145 -134 191 -95 72 -126 82 -285 97 -150 13
-185 20 -238 47 -55 29 -48 54 24 91 78 39 91 84 45 157 -56 87 -167 159 -247
159 -26 0 -67 -13 -114 -35 -83 -40 -128 -44 -162 -15 -27 23 -27 24 55 72 61
36 61 59 0 97 -121 78 -281 111 -352 75z m-584 -300 c155 -32 277 -116 333
-230 27 -55 33 -80 37 -152 l4 -87 -54 88 c-95 157 -229 270 -378 319 -47 15
-101 22 -195 26 -138 5 -141 10 -20 37 82 18 181 18 273 -1z m480 -149 c53
-16 130 -28 197 -33 l110 -7 -46 -22 c-149 -71 -312 -39 -435 83 -30 30 -54
59 -54 64 0 6 32 -6 70 -25 39 -19 109 -47 158 -60z m473 -149 c45 -31 89 -73
89 -88 0 -5 -19 -18 -42 -28 -53 -24 -151 -26 -202 -5 -43 18 -126 91 -126
110 0 25 80 45 162 41 64 -2 84 -7 119 -30z m-368 -105 c43 -47 61 -108 54
-174 -6 -49 -43 -127 -60 -127 -6 0 -25 11 -43 25 -61 47 -91 149 -63 222 12
33 56 93 68 93 5 0 25 -18 44 -39z m528 -103 c54 -24 139 -91 139 -108 0 -5
-21 -17 -47 -27 -71 -27 -157 -23 -226 11 -56 27 -141 110 -134 130 6 18 48
25 132 23 62 -2 93 -8 136 -29z m-318 -67 c42 -74 49 -180 18 -263 -37 -97
-56 -98 -105 -8 -36 66 -44 143 -22 210 19 59 57 121 70 117 5 -2 23 -27 39
-56z m272 -141 c101 -45 213 -150 265 -249 12 -24 12 -24 -31 -17 -117 18
-258 123 -318 235 -17 32 -31 62 -31 65 0 10 50 -5 115 -34z m-6305 -11 c240
-61 439 -238 515 -461 l15 -43 -37 45 c-142 174 -316 279 -518 315 -279 48
-542 -29 -616 -181 -18 -39 -21 -57 -17 -122 6 -79 22 -128 74 -211 l27 -44
-54 7 c-97 13 -181 63 -215 128 -8 15 -14 55 -14 91 0 99 48 187 165 303 71
71 107 99 166 127 161 77 325 92 509 46z m4100 9 c180 -34 363 -176 448 -347
32 -65 37 -84 37 -146 0 -61 -4 -77 -27 -112 -16 -25 -44 -49 -71 -62 -47 -23
-163 -49 -172 -39 -4 3 8 27 25 54 92 146 93 274 2 375 -164 183 -585 185
-868 4 -83 -53 -155 -117 -205 -181 -23 -30 -43 -53 -45 -51 -2 2 8 32 22 67
132 326 486 508 854 438z m-3158 -138 c71 -20 127 -87 142 -173 10 -54 -8 -99
-54 -136 -43 -34 -64 -84 -58 -139 l3 -34 50 63 c66 83 114 119 162 126 34 4
43 2 57 -18 23 -34 20 -64 -13 -101 -52 -61 -66 -97 -66 -178 1 -91 25 -149
90 -208 55 -51 112 -81 172 -89 l48 -6 -49 54 c-66 73 -99 147 -104 232 l-4
68 44 43 c28 27 62 47 91 55 50 15 94 17 104 7 4 -4 -2 -38 -12 -78 -45 -173
-4 -281 120 -318 22 -6 54 -10 72 -8 l32 3 -29 44 c-39 57 -54 113 -47 178 13
128 127 247 220 229 51 -10 118 -66 152 -127 25 -46 29 -65 29 -129 1 -77 -21
-138 -58 -169 -29 -24 -18 -34 37 -29 117 10 179 72 185 188 3 43 -2 88 -12
123 -9 30 -16 65 -16 77 0 21 3 22 59 18 68 -5 129 -39 162 -91 45 -71 7 -208
-86 -314 -45 -51 -46 -53 -21 -53 45 0 133 40 179 81 66 57 101 135 101 218
-1 76 -17 119 -68 179 -43 52 -44 65 -11 97 51 52 120 20 216 -101 52 -66 54
-68 57 -40 7 59 -8 95 -58 143 -57 54 -68 89 -50 161 23 94 91 152 176 152 51
0 114 -16 114 -29 0 -3 -13 -22 -29 -41 -41 -51 -61 -94 -61 -135 0 -28 9 -46
44 -83 59 -65 68 -84 67 -158 -1 -147 -92 -249 -232 -261 -55 -5 -58 -7 -64
-37 -4 -17 -22 -63 -41 -102 -43 -90 -127 -172 -211 -204 -167 -64 -374 -18
-523 117 l-60 55 -61 -56 c-145 -134 -346 -180 -512 -116 -109 41 -206 155
-248 289 -15 51 -19 56 -44 53 -80 -10 -185 50 -225 128 -55 108 -46 212 25
284 24 24 46 54 50 66 12 37 -4 87 -45 142 -22 29 -40 56 -40 59 0 9 42 23
110 38 3 0 22 -4 42 -9z m5291 -48 c33 -60 39 -129 18 -203 -16 -59 -65 -119
-95 -119 -68 0 -111 160 -71 258 18 41 94 124 110 119 5 -2 23 -27 38 -55z
m251 -226 c67 -101 118 -256 84 -256 -32 0 -109 64 -148 122 -49 74 -70 142
-70 227 l1 66 48 -51 c26 -28 64 -77 85 -108z m-171 -94 c30 -33 57 -106 57
-158 0 -62 -39 -146 -76 -162 -22 -11 -28 -9 -48 13 -64 69 -61 210 6 295 27
34 39 36 61 12z m303 -699 c35 -156 -4 -282 -119 -389 -146 -137 -366 -208
-642 -208 -294 0 -450 69 -554 243 -75 127 -163 188 -296 206 -45 6 -48 8 -31
21 38 27 104 47 140 40 19 -4 71 -31 116 -61 79 -52 172 -95 209 -95 13 0 5
13 -29 48 -58 60 -103 150 -104 206 -1 36 2 41 23 44 41 6 110 -28 165 -82 48
-46 56 -61 90 -163 42 -127 77 -181 138 -217 48 -28 146 -56 193 -56 l30 1
-36 19 c-44 23 -106 91 -125 136 -15 36 -19 161 -5 182 6 10 13 5 29 -20 26
-42 96 -109 142 -135 103 -60 257 -70 373 -24 123 48 225 181 250 324 6 36 14
64 18 61 4 -2 15 -39 25 -81z m-5821 62 c59 -16 176 -73 204 -101 10 -9 -1 -8
-35 5 -86 33 -168 44 -232 30 -73 -15 -116 -37 -232 -120 -197 -140 -478 -249
-615 -237 -40 3 -40 3 45 37 182 73 325 153 495 276 177 128 234 145 370 110z
m2380 -49 c28 -13 88 -52 135 -86 168 -125 318 -210 495 -280 108 -42 117 -54
35 -45 -203 21 -401 102 -601 246 -139 100 -175 114 -284 114 -68 -1 -105 -6
-150 -23 -73 -27 -78 -27 -40 -1 46 31 125 71 170 85 69 22 182 17 240 -10z
m-1204 -19 c84 -56 105 -158 50 -234 -30 -42 -89 -73 -139 -73 -42 0 -114 41
-140 80 -49 73 -13 192 70 233 49 24 118 22 159 -6z m-668 -162 c32 -8 74 -23
94 -33 l36 -19 -114 -6 c-139 -7 -219 -32 -282 -87 -46 -41 -79 -89 -190 -278
-84 -142 -161 -246 -255 -342 -77 -78 -79 -78 -26 5 62 99 126 239 180 398 30
89 67 180 82 201 28 40 103 101 159 130 89 45 216 57 316 31z m1402 -47 c69
-23 115 -49 167 -96 56 -50 75 -88 124 -239 25 -75 64 -178 88 -228 38 -81 62
-126 131 -241 33 -55 -142 136 -204 223 -35 49 -101 153 -148 233 -102 171
-152 228 -232 264 -67 30 -194 50 -263 42 -27 -3 -48 -3 -48 0 0 12 113 55
166 63 74 11 142 4 219 -21z m-769 -593 c27 -97 101 -289 141 -369 l25 -50
-28 18 c-48 31 -81 66 -106 112 -12 24 -28 44 -35 44 -24 0 -52 -142 -84 -420
-13 -118 -23 -142 -32 -78 -4 24 -20 131 -37 238 -42 269 -53 299 -85 223 -20
-48 -61 -92 -102 -109 -57 -24 -55 -16 11 65 135 167 221 362 252 576 l7 50
23 -105 c13 -57 35 -145 50 -195z"/>
<path d="M5577 5416 c-14 -13 -29 -36 -33 -51 -7 -29 15 -95 45 -135 17 -21
21 -22 36 -10 52 43 71 147 34 194 -25 32 -49 33 -82 2z"/>
<path d="M5557 4802 c-21 -23 -22 -61 -1 -90 31 -45 94 -15 94 45 0 54 -59 83
-93 45z"/>
<path d="M5036 2809 c-102 -54 -167 -158 -174 -278 -4 -72 4 -112 43 -213 6
-15 2 -18 -21 -18 -71 0 -107 20 -189 105 -159 164 -289 181 -310 40 -22 -145
52 -278 193 -346 l46 -22 -35 -13 c-66 -22 -116 -53 -149 -90 -32 -37 -76
-121 -68 -130 3 -2 29 -8 58 -14 72 -14 128 -48 170 -105 19 -26 55 -59 80
-73 39 -23 54 -26 130 -25 47 1 118 9 159 17 41 9 76 15 78 12 8 -8 -77 -67
-134 -94 -56 -26 -65 -27 -223 -27 -150 -1 -169 -3 -207 -23 -78 -41 -135
-134 -175 -287 -26 -97 -29 -92 66 -141 41 -22 60 -25 107 -22 51 4 69 12 181
86 138 90 183 112 278 135 83 20 188 32 175 20 -5 -5 -42 -33 -82 -62 -123
-89 -243 -236 -295 -362 l-21 -50 29 -30 c110 -116 284 -103 437 30 29 26 77
74 107 108 30 34 56 61 57 59 2 -1 -8 -29 -21 -62 -48 -119 -71 -231 -71 -349
0 -139 10 -159 139 -278 100 -92 145 -162 161 -250 l8 -39 45 94 c40 82 58
105 148 193 126 123 144 156 144 275 0 100 -17 187 -60 307 -46 131 -47 132
-3 78 91 -114 229 -216 326 -242 86 -22 173 5 241 76 l29 30 -18 47 c-47 122
-201 304 -330 390 -30 20 -55 39 -55 41 0 7 107 -7 176 -22 90 -20 158 -54
291 -142 129 -86 164 -99 227 -82 55 14 136 67 136 88 0 33 -42 166 -71 225
-33 67 -78 119 -124 144 -25 14 -60 17 -200 17 l-170 0 -65 32 c-36 17 -81 46
-100 63 -32 29 -33 31 -10 26 97 -23 212 -37 258 -32 73 9 107 28 174 101 62
68 97 89 177 106 46 10 51 13 45 32 -29 95 -102 165 -208 200 l-40 14 46 22
c109 52 186 155 195 261 14 155 -54 217 -175 159 -24 -12 -83 -61 -130 -109
-89 -90 -125 -110 -196 -110 -23 0 -27 3 -21 18 68 162 57 308 -31 411 -38 43
-126 101 -156 101 -10 0 -49 -30 -88 -66 -52 -50 -80 -86 -108 -142 -35 -73
-37 -81 -37 -177 0 -90 3 -105 28 -150 15 -27 34 -60 42 -71 15 -21 15 -21
-47 -28 -75 -9 -142 -36 -157 -64 -6 -12 -11 -47 -11 -79 -1 -80 -14 -129 -47
-176 -42 -60 -57 -66 -89 -37 -49 46 -66 96 -68 191 -1 70 -5 91 -20 108 -22
24 -90 48 -163 57 l-52 6 29 43 c37 53 49 85 60 150 22 137 -48 293 -178 397
-54 43 -63 45 -116 17z m1122 -739 c159 -237 -26 -422 -333 -333 -11 3 8 -15
42 -40 97 -72 140 -163 109 -229 -41 -85 -165 -92 -223 -12 l-20 27 -6 -59
c-7 -65 -54 -168 -113 -248 l-36 -49 -24 29 c-61 75 -114 210 -114 291 l0 43
-36 -40 c-68 -75 -167 -70 -210 11 -35 69 -9 127 102 228 32 30 50 51 39 48
-51 -16 -161 -25 -210 -17 -90 15 -131 44 -160 113 -30 73 -7 185 54 257 l29
35 7 -30 c18 -86 30 -112 69 -151 56 -56 134 -83 337 -118 49 -9 87 -40 109
-90 10 -23 19 -33 19 -23 1 29 28 73 56 91 14 9 67 24 118 32 232 37 313 93
340 233 6 34 12 61 13 61 1 0 20 -27 42 -60z"/>
</g>
</svg>
